<svg xmlns="http://www.w3.org/2000/svg" width="98.206" height="22.255" viewBox="0 0 98.206 22.255">
  <path id="Path_2067" data-name="Path 2067" d="M297.741,572.414a16.951,16.951,0,0,1-1.38,1.263,26.159,26.159,0,0,1-2.449,1.6c-.261.148-.666.047-1,.06a3.267,3.267,0,0,1,.064-.984c.832-2.124,1.7-4.233,2.557-6.349.362-.9.707-1.8,1.172-2.991-1.147.141-2.083.193-2.99.385a4.559,4.559,0,0,1-2.568-.032,1.984,1.984,0,0,0-2.641.75,1.518,1.518,0,0,1-.352.3l.039-.235a17.191,17.191,0,0,0-3.078-1.165,12.618,12.618,0,0,0-9.612,2.271,8.47,8.47,0,0,0-3.514,4.855,1.01,1.01,0,0,1-.351.6c-1.244.672-2.5,1.323-3.779,1.927a.992.992,0,0,1-.891-.043c-.152-.15-.1-.611,0-.883.571-1.555,1.3-3.061,1.748-4.649.43-1.542,1.172-2.285,2.84-2.017a1.75,1.75,0,0,0,1.8-1.038c.383-.671.176-1.035-.589-1.051s-1.549,0-2.4,0c.092-.31.132-.491.2-.661.573-1.438,1.156-2.872,1.724-4.312.308-.78.1-1.12-.74-1.183a1.649,1.649,0,0,0-1.737.823,5,5,0,0,1-4.788,2.938,1.98,1.98,0,0,0-1.952,1.369,1.488,1.488,0,0,1-1.7,1c-1.962-.058-1.964-.019-2.315,1.892a1.652,1.652,0,0,0,.026.326h2.537a2.246,2.246,0,0,1-.085.405c-.774,1.647-1.549,3.294-2.338,4.935a1.056,1.056,0,0,1-.409.481c-1.509.753-3.022,1.5-4.556,2.2a2.388,2.388,0,0,1-.937,0,3.486,3.486,0,0,1,.1-.913c1.084-2.725,2.193-5.441,3.292-8.161.109-.269.2-.543.414-1.111-1.158.149-2.1.312-3.053.379a8.3,8.3,0,0,1-2.4-.036c-1.14-.261-2.093-.266-2.794.813a1.241,1.241,0,0,1-.3.241l.048-.221a18.023,18.023,0,0,0-3.078-1.172,12.466,12.466,0,0,0-8.794,1.725,8.756,8.756,0,0,0-4.435,5.782.816.816,0,0,1-.319.514c-.762.39-1.549.732-2.482,1.162.868-3.405-.721-5.578-3.35-7.356a4.492,4.492,0,0,0,.9-.264,16.005,16.005,0,0,0,2.954-1.81,2.9,2.9,0,0,0,.169-4.365,9.242,9.242,0,0,0-2.973-2.061,13.383,13.383,0,0,0-7.549-.824,24.373,24.373,0,0,0-13.145,6.1c-.851.795-.821,1.08.073,1.889a20,20,0,0,1,4.718-2.592c-.546,1.265-.963,2.326-1.454,3.352-1.346,2.817-2.686,5.637-4.1,8.418a1.708,1.708,0,0,1-2.457.939,21.267,21.267,0,0,1-2.377-1.138c-.061.493-.157,1.02-.179,1.551a.912.912,0,0,0,.229.639c3.433,3.193,8.513,4.036,11.938-.4a23.932,23.932,0,0,0,2.795-4.671q2.379-5.225,4.437-10.593a2,2,0,0,1,2.134-1.426,2.026,2.026,0,0,1,2.264,2.538c-.31,2.176-1.57,3.3-4,3.57-1.57.174-1.62.219-1.779,1.646.319.026.638.045.955.081a2.467,2.467,0,0,1,2.448,2.47,6.377,6.377,0,0,1-1.177,4.311c-1.168,1.7-3.277,2.825-5.437.934-.033-.029-.1-.019-.217-.036l-.963,1.516c.248.189.471.345.678.52a9.109,9.109,0,0,0,9.794,1.579c2.1-.822,4.129-1.842,6.189-2.774.265-.12.53-.242.839-.384a5.554,5.554,0,0,0,5.408,3.613,9.825,9.825,0,0,0,5.991-2.091c.371-.268.725-.559,1.146-.885.129.293.236.535.342.776a3.334,3.334,0,0,0,3.764,2.211,7.025,7.025,0,0,0,1.669-.375c2.228-.809,4.443-1.655,6.662-2.487l.779-.3a9.523,9.523,0,0,0,.171,1.5c.415,1.477,1.825,2.178,3.689,1.884,2.873-.454,5.424-1.779,8.036-2.939.639-.284,1.268-.591,1.891-.882,1.707,2.709,3.015,3.559,5.467,3.583a9.872,9.872,0,0,0,5.924-2.047c.4-.282.773-.592,1.182-.908a1.468,1.468,0,0,1,.2.3c.773,2.363,3.1,3.794,6.257,2.667a25.911,25.911,0,0,0,7.776-4.42,7.648,7.648,0,0,1,.734-.477v-.489Zm-50.643-3.1a12.387,12.387,0,0,1-3.764,5.328,2.7,2.7,0,0,1-.333.236,2.048,2.048,0,0,1-2.141.359,1.98,1.98,0,0,1-.9-1.815c-.016-2.5,2.56-5.88,4.825-6.494a1.951,1.951,0,0,1,2.053.409A1.73,1.73,0,0,1,247.1,569.312Zm39.721-.529a10.411,10.411,0,0,1-4.6,6.294c-1.343.826-2.526.144-2.615-1.437a5.078,5.078,0,0,1,.262-1.993,8.306,8.306,0,0,1,3.8-4.415,5.816,5.816,0,0,1,1.23-.426C286.294,566.816,287.124,567.69,286.818,568.784Z" transform="translate(-200.708 -557.312)" fill="#fff"/>
</svg>
