<svg xmlns="http://www.w3.org/2000/svg" width="207.127" height="46.939" viewBox="0 0 207.127 46.939">
  <path id="Path_2067" data-name="Path 2067" d="M405.36,589.164a35.775,35.775,0,0,1-2.911,2.664,55.17,55.17,0,0,1-5.166,3.375c-.551.313-1.4.1-2.118.126a6.889,6.889,0,0,1,.135-2.076c1.755-4.48,3.595-8.927,5.393-13.39.763-1.893,1.491-3.8,2.473-6.308-2.419.3-4.394.406-6.305.811a9.614,9.614,0,0,1-5.417-.068c-2.2-.784-4.186-.628-5.571,1.581a3.2,3.2,0,0,1-.743.625l.081-.5c-2.16-.842-4.252-2.06-6.492-2.457-7.393-1.311-14.158.587-20.272,4.791a17.863,17.863,0,0,0-7.411,10.241,2.131,2.131,0,0,1-.74,1.263c-2.623,1.417-5.273,2.791-7.969,4.065a2.091,2.091,0,0,1-1.879-.09c-.32-.315-.221-1.288-.01-1.863,1.2-3.279,2.752-6.455,3.687-9.8.908-3.252,2.472-4.819,5.99-4.255a3.692,3.692,0,0,0,3.8-2.19c.807-1.415.372-2.183-1.241-2.217-1.633-.035-3.267-.008-5.072-.008.195-.653.277-1.036.42-1.4,1.208-3.034,2.437-6.058,3.637-9.095.65-1.646.2-2.363-1.561-2.495a3.478,3.478,0,0,0-3.664,1.736c-2.159,4.033-5.354,6.272-10.1,6.2a4.177,4.177,0,0,0-4.117,2.887c-.657,1.736-1.816,2.164-3.589,2.111-4.139-.123-4.142-.039-4.882,3.991a3.487,3.487,0,0,0,.055.687h5.351a4.731,4.731,0,0,1-.179.855c-1.633,3.474-3.266,6.948-4.931,10.408a2.226,2.226,0,0,1-.862,1.014c-3.182,1.589-6.374,3.161-9.609,4.638a5.033,5.033,0,0,1-1.976,0,7.355,7.355,0,0,1,.219-1.925c2.286-5.748,4.625-11.476,6.944-17.211.229-.567.428-1.146.874-2.342-2.442.313-4.433.657-6.439.8a17.5,17.5,0,0,1-5.052-.075c-2.4-.55-4.414-.561-5.893,1.714a2.616,2.616,0,0,1-.638.508q.05-.233.1-.467c-2.16-.846-4.251-2.048-6.491-2.471-6.614-1.248-12.812.284-18.548,3.639-4.755,2.781-8.133,6.682-9.355,12.2a1.722,1.722,0,0,1-.673,1.085c-1.608.822-3.267,1.544-5.235,2.451,1.831-7.182-1.52-11.763-7.066-15.514a9.466,9.466,0,0,0,1.89-.556c2.117-1.216,4.471-2.2,6.229-3.817a6.107,6.107,0,0,0,.356-9.206,19.491,19.491,0,0,0-6.271-4.346,28.225,28.225,0,0,0-15.922-1.737c-10.442,1.686-19.9,5.564-27.724,12.867-1.8,1.676-1.731,2.278.154,3.985,3.087-1.911,5.979-4.236,9.95-5.466-1.151,2.668-2.032,4.906-3.066,7.07-2.838,5.94-5.666,11.889-8.656,17.754-1.2,2.352-2.643,2.84-5.183,1.98a44.9,44.9,0,0,1-5.013-2.4c-.13,1.039-.331,2.152-.378,3.271a1.922,1.922,0,0,0,.482,1.347c7.24,6.735,17.955,8.513,25.179-.851a50.473,50.473,0,0,0,5.894-9.852q5.018-11.021,9.358-22.342c.918-2.39,2.375-2.949,4.5-3.008,3.406-.094,5.254,1.988,4.775,5.353-.654,4.59-3.312,6.961-8.443,7.53-3.312.367-3.417.462-3.752,3.471.673.056,1.346.094,2.015.17,3.188.361,4.866,2.039,5.162,5.21a13.449,13.449,0,0,1-2.483,9.093c-2.464,3.581-6.911,5.957-11.468,1.97-.071-.062-.216-.039-.458-.077l-2.03,3.2c.523.4.994.727,1.43,1.1,6.214,5.246,13.185,6.251,20.657,3.331,4.436-1.734,8.708-3.885,13.053-5.85.56-.253,1.117-.511,1.769-.809a11.714,11.714,0,0,0,11.406,7.62c4.747.075,8.865-1.692,12.635-4.411.782-.564,1.529-1.178,2.418-1.866.273.619.5,1.128.721,1.637,1.548,3.542,4.06,5.059,7.938,4.663a14.817,14.817,0,0,0,3.52-.791c4.7-1.705,9.37-3.49,14.052-5.246.523-.2,1.044-.4,1.644-.623a20.079,20.079,0,0,0,.361,3.172c.876,3.116,3.849,4.595,7.781,3.973,6.058-.958,11.44-3.753,16.949-6.2,1.348-.6,2.674-1.246,3.987-1.86,3.6,5.714,6.359,7.506,11.531,7.558a20.823,20.823,0,0,0,12.495-4.318c.836-.6,1.629-1.25,2.492-1.915a3.093,3.093,0,0,1,.412.623c1.63,4.985,6.537,8,13.2,5.625a54.652,54.652,0,0,0,16.4-9.323,16.118,16.118,0,0,1,1.547-1.005v-1.031Zm-106.812-6.542a26.127,26.127,0,0,1-7.939,11.236,5.7,5.7,0,0,1-.7.5c-1.406.841-2.871,1.653-4.517.758-1.623-.882-1.81-2.526-1.9-3.828-.035-5.271,5.4-12.4,10.177-13.7a4.116,4.116,0,0,1,4.329.863C299.218,579.684,299.092,581.156,298.548,582.622Zm83.775-1.115a21.959,21.959,0,0,1-9.7,13.274c-2.832,1.743-5.327.3-5.516-3.03a10.71,10.71,0,0,1,.553-4.2,17.519,17.519,0,0,1,8.013-9.312,12.287,12.287,0,0,1,2.595-.9C381.218,577.356,382.969,579.2,382.323,581.507Z" transform="translate(-200.708 -557.312)" fill="#e4001c"/>
</svg>
