<svg id="call" xmlns="http://www.w3.org/2000/svg" width="17.867" height="17.867" viewBox="0 0 17.867 17.867">
  <g id="Group_6848" data-name="Group 6848">
    <path id="Path_4257" data-name="Path 4257" d="M16.433,11.727a10.144,10.144,0,0,1-3.186-.507,1.456,1.456,0,0,0-1.416.3L9.822,13.035A11.1,11.1,0,0,1,4.831,8.045L6.3,6.088a1.444,1.444,0,0,0,.355-1.463,10.16,10.16,0,0,1-.509-3.191A1.435,1.435,0,0,0,4.715,0H1.434A1.435,1.435,0,0,0,0,1.434,16.452,16.452,0,0,0,16.433,17.867a1.435,1.435,0,0,0,1.434-1.434V13.161A1.435,1.435,0,0,0,16.433,11.727Z" fill="#fff"/>
  </g>
</svg>
