<svg xmlns="http://www.w3.org/2000/svg" width="224.4" height="191.519" viewBox="0 0 224.4 191.519">
  <g id="Group_537" data-name="Group 537" transform="translate(-294 -2401.749)">
    <g id="freepik--Table--inject-53" transform="translate(294 2592.889)">
      <path id="Path_2229" data-name="Path 2229" d="M249,465.563c0,.077-50.239.133-112.195.133S24.6,465.64,24.6,465.563s50.229-.133,112.205-.133S249,465.491,249,465.563Z" transform="translate(-24.6 -465.43)" fill="#263238"/>
    </g>
    <g id="freepik--speech-bubble--inject-53" transform="translate(335.013 2401.749)">
      <path id="Path_2230" data-name="Path 2230" d="M203.431,178.377H163.675l-7.594,11.251-7.41-11.251h-39.05a4.521,4.521,0,0,1-4.521-4.521V96.426a4.521,4.521,0,0,1,4.521-4.526h93.81a4.521,4.521,0,0,1,4.521,4.526v77.451a4.521,4.521,0,0,1-4.521,4.5Z" transform="translate(-104.946 -91.781)" fill="#fafafa"/>
      <path id="Path_2231" data-name="Path 2231" d="M203.283,178.263h.245a4.542,4.542,0,0,0,.731-.107,4.49,4.49,0,0,0,3.38-3.345,3.4,3.4,0,0,0,.107-1.217v-7.783c0-9.716-.026-23.718-.041-41.039V96.43a4.429,4.429,0,0,0-3.068-4.316,5.272,5.272,0,0,0-1.908-.215H109.018a4.74,4.74,0,0,0-.588.107,4.352,4.352,0,0,0-3.217,3.227,9.15,9.15,0,0,0-.128,2.194v75.267a10.4,10.4,0,0,0,.082,1.882,4.4,4.4,0,0,0,2.046,2.92,4.275,4.275,0,0,0,1.713.588c.6.061,1.238.026,1.851.036h37.8l.031.046,7.4,11.251h-.153l7.6-11.251.026-.036h.041l29.334.133h0l-29.308.036.066-.036q-3.529,5.257-7.584,11.276l-.077.118-.077-.118-7.415-11.251.082.046H110.793c-.624,0-1.232.026-1.877-.036a4.654,4.654,0,0,1-4.014-3.616,10.229,10.229,0,0,1-.092-1.928v-76.4a4.638,4.638,0,0,1,3.549-4.562,5.145,5.145,0,0,1,.624-.113h93.754a5.548,5.548,0,0,1,1.979.23,4.7,4.7,0,0,1,1.708,1.023,4.6,4.6,0,0,1,1.13,1.606,4.864,4.864,0,0,1,.363,1.918V124.8c0,17.321-.031,31.343-.041,41.039v7.783a5.178,5.178,0,0,1-.026.634,4.425,4.425,0,0,1-.107.6,4.531,4.531,0,0,1-3.442,3.36,4.168,4.168,0,0,1-.731.087Z" transform="translate(-104.798 -91.667)" fill="#263238"/>
      <path id="Path_2232" data-name="Path 2232" d="M179.527,183.436c0,1.023-.752,1.626-1.959,1.626h-.905v1.243H175.64V181.8h1.948C178.775,181.82,179.527,182.444,179.527,183.436Zm-1.059,0c0-.511-.317-.788-.956-.788h-.849v1.565h.849C178.151,184.234,178.468,183.948,178.468,183.436Z" transform="translate(-139.412 -135.707)" fill="#263238"/>
      <path id="Path_2233" data-name="Path 2233" d="M187.328,185.333v1.974h-.941v-.43a1.14,1.14,0,0,1-1.053.481c-.808,0-1.294-.45-1.294-1.048s.435-1.023,1.488-1.023h.8c0-.43-.256-.68-.8-.68a1.662,1.662,0,0,0-1,.322l-.363-.7a2.669,2.669,0,0,1,1.493-.419C186.72,183.794,187.328,184.285,187.328,185.333Zm-1.023.88v-.353h-.69c-.47,0-.619.174-.619.4s.215.419.568.419a.741.741,0,0,0,.762-.47Z" transform="translate(-143.516 -136.688)" fill="#263238"/>
      <path id="Path_2234" data-name="Path 2234" d="M191.59,186.951l.332-.721a2.388,2.388,0,0,0,1.207.332c.46,0,.634-.118.634-.312,0-.568-2.092,0-2.092-1.371,0-.655.593-1.12,1.606-1.12a2.884,2.884,0,0,1,1.33.3l-.332.716a1.984,1.984,0,0,0-1.023-.256c-.45,0-.644.138-.644.317,0,.593,2.092,0,2.092,1.386,0,.644-.6,1.1-1.636,1.1a3.007,3.007,0,0,1-1.473-.373Z" transform="translate(-147.205 -136.664)" fill="#263238"/>
      <path id="Path_2235" data-name="Path 2235" d="M198.27,186.951l.332-.721a2.388,2.388,0,0,0,1.2.332c.465,0,.639-.118.639-.312,0-.568-2.092,0-2.092-1.371,0-.655.593-1.12,1.6-1.12a2.889,2.889,0,0,1,1.335.3l-.338.716a1.958,1.958,0,0,0-1-.256c-.45,0-.639.138-.639.317,0,.593,2.087,0,2.087,1.386,0,.644-.6,1.1-1.631,1.1a2.992,2.992,0,0,1-1.5-.373Z" transform="translate(-150.469 -136.664)" fill="#263238"/>
      <path id="Path_2236" data-name="Path 2236" d="M210.584,183.88l-1.253,3.462h-.967l-.777-2.148-.8,2.148h-.977l-1.248-3.462h.946l.818,2.342.849-2.342h.849l.823,2.342.844-2.342Z" transform="translate(-153.542 -136.723)" fill="#263238"/>
      <path id="Path_2237" data-name="Path 2237" d="M216.566,185.335a1.9,1.9,0,1,1,1.9,1.78,1.78,1.78,0,0,1-1.9-1.78Zm2.787,0a.89.89,0,1,0-.885.956.88.88,0,0,0,.874-.956Z" transform="translate(-159.407 -136.444)" fill="#263238"/>
      <path id="Path_2238" data-name="Path 2238" d="M227.438,183.775v.926h-.225a.849.849,0,0,0-.921.961V187.3H225.27v-3.462h.961v.455a1.391,1.391,0,0,1,1.207-.516Z" transform="translate(-163.661 -136.669)" fill="#263238"/>
      <path id="Path_2239" data-name="Path 2239" d="M233.855,181.305v4.771H232.9v-.4a1.335,1.335,0,0,1-1.079.45,1.79,1.79,0,0,1,0-3.58,1.33,1.33,0,0,1,1.023.419V181.29Zm-.982,3.068a.89.89,0,1,0-.885.956.88.88,0,0,0,.885-.982Z" transform="translate(-165.987 -135.457)" fill="#263238"/>
      <rect id="Rectangle_17302" data-name="Rectangle 17302" width="12.12" height="16.769" rx="5.48" transform="translate(17.046 58.387)" fill="#ebebeb"/>
      <rect id="Rectangle_17303" data-name="Rectangle 17303" width="11.793" height="16.769" rx="5.48" transform="translate(45.975 58.387)" fill="#ebebeb"/>
      <rect id="Rectangle_17304" data-name="Rectangle 17304" width="11.793" height="16.769" rx="5.48" transform="translate(31.799 58.387)" fill="#ebebeb"/>
      <rect id="Rectangle_17305" data-name="Rectangle 17305" width="12.125" height="16.769" rx="5.48" transform="translate(60.085 58.387)" fill="#ebebeb"/>
      <rect id="Rectangle_17306" data-name="Rectangle 17306" width="12.125" height="16.769" rx="5.48" transform="translate(73.99 58.387)" fill="#ebebeb"/>
      <path id="Path_2240" data-name="Path 2240" d="M149.57,219.118l1.294.7-.583.977-1.3-.777v1.442h-1.115v-1.452l-1.309.788-.573-.977,1.3-.7-1.3-.716.573-.977,1.309.788V216.76h1.115v1.452l1.3-.788.583.977Z" transform="translate(-124.92 -152.788)" fill="#e4001c"/>
      <path id="Path_2241" data-name="Path 2241" d="M177.254,218.977l1.3.7-.583.977-1.309-.767.026,1.442h-1.12v-1.452l-1.309.788-.568-.977,1.294-.7-1.294-.716.568-.977,1.309.788V216.63h1.12l-.026,1.452,1.309-.788.583.977Z" transform="translate(-138.459 -152.725)" fill="#e4001c"/>
      <path id="Path_2242" data-name="Path 2242" d="M205.58,218.968l1.3.7-.583.977-1.335-.767.026,1.442h-1.12v-1.452l-1.309.788-.557-.987,1.294-.7L202,218.252l.568-.977,1.309.788V216.61H205l-.026,1.452,1.309-.788.583.977Z" transform="translate(-152.292 -152.715)" fill="#e4001c"/>
      <path id="Path_2243" data-name="Path 2243" d="M232.945,218.977l1.294.7-.583.977-1.309-.767.026,1.442h-1.12v-1.452l-1.309.788-.573-.977,1.3-.7-1.3-.716.573-.977,1.309.788V216.63h1.12l-.026,1.452,1.309-.788.583.977Z" transform="translate(-165.665 -152.725)" fill="#e4001c"/>
      <path id="Path_2244" data-name="Path 2244" d="M147.325,222.618h-6.27a2.93,2.93,0,0,1-2.925-2.925V208.565a2.93,2.93,0,0,1,2.925-2.925h6.27a2.925,2.925,0,0,1,2.925,2.925v11.128a2.93,2.93,0,0,1-2.925,2.925Zm-6.27-16.794a2.721,2.721,0,0,0-2.715,2.721v11.128a2.716,2.716,0,0,0,2.715,2.715h6.27a2.721,2.721,0,0,0,2.721-2.716V208.565a2.726,2.726,0,0,0-2.721-2.721Z" transform="translate(-121.084 -147.355)" fill="#263238"/>
      <path id="Path_2245" data-name="Path 2245" d="M175.8,222.618h-6.275a2.93,2.93,0,0,1-2.925-2.925V208.565a2.93,2.93,0,0,1,2.925-2.925H175.8a2.925,2.925,0,0,1,2.92,2.925v11.128A2.925,2.925,0,0,1,175.8,222.618Zm-6.275-16.794a2.721,2.721,0,0,0-2.715,2.721v11.128a2.715,2.715,0,0,0,2.715,2.715H175.8a2.716,2.716,0,0,0,2.716-2.715V208.565a2.721,2.721,0,0,0-2.716-2.721Z" transform="translate(-134.995 -147.355)" fill="#263238"/>
      <path id="Path_2246" data-name="Path 2246" d="M203.485,222.618h-6.28a2.93,2.93,0,0,1-2.925-2.925V208.565a2.93,2.93,0,0,1,2.925-2.925h6.275a2.925,2.925,0,0,1,2.92,2.925v11.128a2.925,2.925,0,0,1-2.915,2.925Zm-6.28-16.794a2.721,2.721,0,0,0-2.715,2.721v11.128a2.715,2.715,0,0,0,2.715,2.715h6.275a2.716,2.716,0,0,0,2.715-2.715V208.565a2.721,2.721,0,0,0-2.716-2.721Z" transform="translate(-148.519 -147.355)" fill="#263238"/>
      <path id="Path_2247" data-name="Path 2247" d="M231.485,222.618h-6.28a2.93,2.93,0,0,1-2.925-2.925V208.565a2.925,2.925,0,0,1,2.925-2.925h6.27a2.93,2.93,0,0,1,2.925,2.925v11.128a2.93,2.93,0,0,1-2.915,2.925Zm-6.28-16.794a2.726,2.726,0,0,0-2.721,2.721v11.128a2.721,2.721,0,0,0,2.721,2.716h6.27a2.715,2.715,0,0,0,2.715-2.715V208.565a2.721,2.721,0,0,0-2.716-2.721Z" transform="translate(-162.2 -147.355)" fill="#263238"/>
      <path id="Path_2248" data-name="Path 2248" d="M258.685,222.618h-6.27a2.93,2.93,0,0,1-2.925-2.925V208.565a2.925,2.925,0,0,1,2.925-2.925h6.27a2.93,2.93,0,0,1,2.925,2.925v11.128A2.93,2.93,0,0,1,258.685,222.618Zm-6.27-16.794a2.726,2.726,0,0,0-2.721,2.721v11.128a2.721,2.721,0,0,0,2.721,2.716h6.27a2.716,2.716,0,0,0,2.716-2.715V208.565a2.721,2.721,0,0,0-2.716-2.721Z" transform="translate(-175.495 -147.355)" fill="#263238"/>
      <path id="Path_2249" data-name="Path 2249" d="M261.49,229.988a42.516,42.516,0,0,1-6.72,0,42.516,42.516,0,0,1,6.72,0Z" transform="translate(-178.075 -159.179)" fill="#ff725e"/>
      <circle id="Ellipse_110" data-name="Ellipse 110" cx="13.547" cy="13.547" r="13.547" transform="translate(38.765 13.936)" fill="#e4001c"/>
      <path id="Path_2326" data-name="Path 2326" d="M237.235,104.754l-2.584,3.317a.987.987,0,0,1-.819.457.851.851,0,0,1-.6-.239.776.776,0,0,1-.251-.6,1.165,1.165,0,0,1,.251-.686l2.945-3.643-2.762-3.646a1,1,0,0,1-.2-.593.924.924,0,0,1,.294-.68.937.937,0,0,1,.678-.289.972.972,0,0,1,.809.457l2.5,3.287L240,98.67a1.067,1.067,0,0,1,.861-.52.859.859,0,0,1,.831.831.879.879,0,0,1-.191.535l-2.955,3.782,2.855,3.766a.972.972,0,0,1,.213.593.861.861,0,0,1-.3.658.989.989,0,0,1-.686.276.974.974,0,0,1-.814-.457Z" transform="translate(-185.009 -76.032)" fill="#fff"/>
    </g>
    <g id="freepik--Character--inject-53" transform="translate(354.616 2433.562)">
      <path id="Path_2255" data-name="Path 2255" d="M345.09,284.87,332.8,283.09l-24.583,3.636-6.9,2.439,1.222,15.086,23.637,4.352,15.945-4.725,6.029-8.873Z" transform="translate(-220.423 -217.011)" fill="#ffbe9d"/>
      <path id="Path_2256" data-name="Path 2256" d="M342.338,287.074l-10.289-2.424s-7.267,22.5-25.212,21.514c-14.626-.793-14.795-17.116-14.795-17.116l-10.54,3.375s-4.035,27.037.43,46.194c1.023,4.475,2.439,10.5,2.439,10.5l-1.427,27.989,77.957.123-18.564-90.159Z" transform="translate(-209.923 -217.773)" fill="#e4001c"/>
      <g id="Group_532" data-name="Group 532" transform="translate(101.854 147.345)" opacity="0.3">
        <path id="Path_2257" data-name="Path 2257" d="M342.3,448.561c3.795-.1,7.292.225,11.087.133a73.118,73.118,0,0,1,13.634.511c3.365.557,6.648,1.58,10.013,2.112,4.6.726,9.507.47,13.6-1.744l-.66-3.82L374.436,442Z" transform="translate(-342.3 -442)"/>
      </g>
      <path id="Path_2258" data-name="Path 2258" d="M247.914,305.94c3.58-4.6,9.491-6.52,9.491-6.52l3.989,34.719L253.841,384.7l-24.741-.118S242.744,312.614,247.914,305.94Z" transform="translate(-185.136 -224.989)" fill="#e4001c"/>
      <path id="Path_2259" data-name="Path 2259" d="M395.546,288.89s16.651,1.335,22.624,28.638c2.7,12.34,6.137,26.8,7.1,36.519.711,7.047-3.12,18.083-10.146,18.988l-8.837,1.186a14.6,14.6,0,0,1-5.206-.189c-5.579-1.284-6.137-5.114-7.159-9.205l-2.557-8.141c-1.411-7.743,5.8-9.205,9.788-9.1l-2.971-35.342Z" transform="translate(-264.333 -219.844)" fill="#e4001c"/>
      <path id="Path_2260" data-name="Path 2260" d="M279.709,337.17a1.809,1.809,0,0,0-.077.378c-.041.276-.1.644-.169,1.1-.031.24-.072.511-.112.8s-.061.609-.1.951c-.072.68-.153,1.457-.189,2.322a58.711,58.711,0,0,0-.041,6.07,74.1,74.1,0,0,0,.736,7.39c.384,2.613.864,5.078,1.355,7.308s.967,4.229,1.386,5.907.772,3.022,1.023,3.953c.123.445.22.8.3,1.069a1.8,1.8,0,0,0,.123.368,1.9,1.9,0,0,0-.072-.378c-.061-.276-.143-.634-.245-1.084-.23-.967-.552-2.317-.951-3.974s-.859-3.682-1.324-5.912-.951-4.689-1.33-7.292-.644-5.114-.757-7.369a52.739,52.739,0,0,1,0-6.045c.026-.864.092-1.636.148-2.322q.036-.511.077-.951c.031-.286.061-.552.087-.8.051-.455.092-.823.118-1.1A1.959,1.959,0,0,0,279.709,337.17Z" transform="translate(-209.5 -243.434)" fill="#263238"/>
      <path id="Path_2261" data-name="Path 2261" d="M423.678,413.114a3,3,0,0,0-.118-.7,11.155,11.155,0,0,0-.644-1.8,12.238,12.238,0,0,0-9.773-7.113,10.739,10.739,0,0,0-1.907-.061,3.12,3.12,0,0,0-.7.087,22.826,22.826,0,0,1,2.557.159,12.626,12.626,0,0,1,9.63,7.006,24.791,24.791,0,0,1,.951,2.419Z" transform="translate(-273.789 -275.807)" fill="#263238"/>
      <path id="Path_2262" data-name="Path 2262" d="M419.909,395.753a1.283,1.283,0,0,0-.4-.036,8.483,8.483,0,0,0-1.1.051,12.615,12.615,0,0,0-3.513.88,12.913,12.913,0,0,0-3.12,1.846,8.888,8.888,0,0,0-.813.736c-.179.189-.271.3-.261.312s.45-.358,1.192-.9a14.682,14.682,0,0,1,6.541-2.69C419.337,395.819,419.909,395.8,419.909,395.753Z" transform="translate(-273.866 -272.039)" fill="#263238"/>
      <path id="Path_2263" data-name="Path 2263" d="M394.929,309.927a3.777,3.777,0,0,0,.041-.731c0-.47.031-1.146.087-1.979a31.778,31.778,0,0,1,3.508-12.488c.384-.742.716-1.335.956-1.734a3.772,3.772,0,0,0,.343-.644,3.854,3.854,0,0,0-.435.588,19.849,19.849,0,0,0-1.023,1.7,28.8,28.8,0,0,0-3.529,12.57c-.031.839-.031,1.534,0,1.989A3.527,3.527,0,0,0,394.929,309.927Z" transform="translate(-266.125 -221.535)" fill="#263238"/>
      <path id="Path_2264" data-name="Path 2264" d="M332.64,375.15a1.11,1.11,0,0,0,.072.286c.061.184.138.465.276.8a16.659,16.659,0,0,0,1.386,2.808,18.047,18.047,0,0,0,17.679,8.489,17.224,17.224,0,0,0,3.068-.67c.353-.107.619-.225.8-.292a1.531,1.531,0,0,0,.271-.118c0-.026-.394.107-1.1.307a18.536,18.536,0,0,1-20.563-7.814,19.387,19.387,0,0,1-1.452-2.746A6.914,6.914,0,0,0,332.64,375.15Z" transform="translate(-235.726 -261.991)" fill="#263238"/>
      <path id="Path_2265" data-name="Path 2265" d="M401.26,443.829c.026-.026.286.348.91.859a8.361,8.361,0,0,0,3.068,1.452,16.125,16.125,0,0,0,5.012.445c1.9-.138,4-.363,6.183-.685a31.7,31.7,0,0,0,6.034-1.391,7.669,7.669,0,0,0,2.214-1.478,11.5,11.5,0,0,0,1.534-1.764,16.677,16.677,0,0,0,1.7-2.951c.159-.373.281-.66.358-.859a1.164,1.164,0,0,1,.133-.3,2.1,2.1,0,0,1-.082.312c-.061.21-.169.511-.317.885a14.944,14.944,0,0,1-1.642,3.022,11.424,11.424,0,0,1-1.534,1.81,7.733,7.733,0,0,1-2.271,1.534,30.076,30.076,0,0,1-6.086,1.427c-2.194.327-4.291.542-6.208.67a16.109,16.109,0,0,1-5.078-.511,8.183,8.183,0,0,1-3.068-1.534,4.9,4.9,0,0,1-.649-.68A1.341,1.341,0,0,1,401.26,443.829Z" transform="translate(-269.254 -292.29)" fill="#263238"/>
      <path id="Path_2266" data-name="Path 2266" d="M395.888,343.72c.066,0,1.826,6.8,3.917,15.224s3.733,15.27,3.662,15.291-1.826-6.8-3.917-15.229S395.816,343.735,395.888,343.72Z" transform="translate(-266.628 -246.635)" fill="#263238"/>
      <path id="Path_2267" data-name="Path 2267" d="M391.609,411.4a2.087,2.087,0,0,1-.087-.563,10.02,10.02,0,0,1-.036-1.534,4.547,4.547,0,0,1,.752-2.184,6.492,6.492,0,0,1,.854-1.074,6.016,6.016,0,0,1,1.181-.88,14.973,14.973,0,0,1,4.848-1.565,13.621,13.621,0,0,1,1.534-.133,1.933,1.933,0,0,1,.568,0c0,.041-.8.072-2.076.3a16.15,16.15,0,0,0-4.746,1.606,5.928,5.928,0,0,0-1.135.839,6.422,6.422,0,0,0-.828,1.023,4.4,4.4,0,0,0-.767,2.046,13.081,13.081,0,0,0-.046,1.534A2.521,2.521,0,0,1,391.609,411.4Z" transform="translate(-264.472 -275.819)" fill="#263238"/>
      <g id="Group_533" data-name="Group 533" transform="translate(67.669 92.626)" opacity="0.3">
        <path id="Path_2268" data-name="Path 2268" d="M278.76,359.036A25.7,25.7,0,0,1,278.126,335a67.38,67.38,0,0,0,.757,24" transform="translate(-275.453 -335)"/>
      </g>
      <path id="Path_2269" data-name="Path 2269" d="M325.89,417.08h.031Z" transform="translate(-232.428 -282.479)" fill="#ffbe9d"/>
      <path id="Path_2270" data-name="Path 2270" d="M326.25,417.25l.066.031Z" transform="translate(-232.604 -282.562)" fill="#ffbe9d"/>
      <path id="Path_2271" data-name="Path 2271" d="M326,417.11l.153.072Z" transform="translate(-232.482 -282.493)" fill="#ffbe9d"/>
      <path id="Path_2272" data-name="Path 2272" d="M325.76,417l.066.031Z" transform="translate(-232.365 -282.44)" fill="#ffbe9d"/>
      <path id="Path_2273" data-name="Path 2273" d="M294.516,430.1c1.34-2.526,11.788-9.205,11.788-9.205l-2.828-.655-3.125,1.319a7.671,7.671,0,0,1-1.345,2.925c-1.146,1.636-3.094-.056-3.094-.056l1.319-6.326,6.178-3.718a60.452,60.452,0,0,1,6.75,1.34l2.475,2.266c1.089.854,4.229,4.214,5.088,4.316s27.845-5.958,27.845-5.958h0c3.7,2.93,5.625,8.745,6.229,12.943,0,0,.66,2.046-.056,3.181l-33.1,2.6L311.622,437a49.674,49.674,0,0,1-5.763,1.979c-2.332.511-3.9-.261-3.968-1.534s1.749-1.432,1.749-1.432a35.29,35.29,0,0,0,4.51-1.984,7.911,7.911,0,0,0,2.557-2.792l-2.5.3s-5.318,3.692-7.318,4.776-2.393-.905-2.557-1.534,5.973-6.6,5.973-6.6-5.835,3.58-6.883,4.5-2.6,1.181-2.935.573S293.182,432.621,294.516,430.1Z" transform="translate(-216.765 -281.16)" fill="#ffbe9d"/>
      <path id="Path_2274" data-name="Path 2274" d="M326.38,417.31l.056.031Z" transform="translate(-232.668 -282.591)" fill="#ffbe9d"/>
      <path id="Path_2275" data-name="Path 2275" d="M326.56,417.4Z" transform="translate(-232.756 -282.635)" fill="#ffbe9d"/>
      <path id="Path_2276" data-name="Path 2276" d="M326.49,417.37h.036Z" transform="translate(-232.721 -282.62)" fill="#ffbe9d"/>
      <path id="Path_2277" data-name="Path 2277" d="M346.109,438.256a1.439,1.439,0,0,0,.031-.409,2.4,2.4,0,0,0-.031-.481,3.619,3.619,0,0,0-.118-.629,8.98,8.98,0,0,0-1.693-3.268,18.921,18.921,0,0,0-2.557-2.649,7.349,7.349,0,0,0-1.2-.931,12.889,12.889,0,0,0,1.084,1.059,24.366,24.366,0,0,1,2.475,2.675,9.619,9.619,0,0,1,1.718,3.16C346.083,437.673,346.058,438.262,346.109,438.256Z" transform="translate(-239.586 -288.738)" fill="#eb996e"/>
      <path id="Path_2278" data-name="Path 2278" d="M318.69,425.675a3.835,3.835,0,0,0,3.3-1.11c-.041-.056-.68.419-1.6.716S318.69,425.6,318.69,425.675Z" transform="translate(-228.91 -286.134)" fill="#eb996e"/>
      <path id="Path_2279" data-name="Path 2279" d="M315.29,438.228a32.892,32.892,0,0,0,5.226-2.148,15.974,15.974,0,0,0-2.659.961A16.671,16.671,0,0,0,315.29,438.228Z" transform="translate(-227.249 -291.762)" fill="#eb996e"/>
      <path id="Path_2280" data-name="Path 2280" d="M326.25,446.193a6.132,6.132,0,0,0,1.36-.486,6.013,6.013,0,0,0,1.33-.568,5.381,5.381,0,0,0-2.69,1.053Z" transform="translate(-232.604 -296.189)" fill="#eb996e"/>
      <path id="Path_2281" data-name="Path 2281" d="M317,441.169a5.788,5.788,0,0,1,1.023.9,5.671,5.671,0,0,1,.593,1.238c.031,0,.061-.169,0-.435a2.214,2.214,0,0,0-.419-.951,2.188,2.188,0,0,0-.8-.655C317.164,441.154,317,441.143,317,441.169Z" transform="translate(-228.084 -294.243)" fill="#eb996e"/>
      <path id="Path_2282" data-name="Path 2282" d="M312.178,433.617c-.036.061.424.312.726.839a6.649,6.649,0,0,1,.373,1.048,1.243,1.243,0,0,0-.169-1.186C312.766,433.725,312.188,433.551,312.178,433.617Z" transform="translate(-225.728 -290.552)" fill="#eb996e"/>
      <path id="Path_2283" data-name="Path 2283" d="M313.258,417.96c.031,0,.123-.1.2-.332a1.815,1.815,0,0,0,0-.92,1.78,1.78,0,0,0-.44-.808c-.169-.169-.307-.23-.327-.2a4.826,4.826,0,0,1,.511,1.074A4.408,4.408,0,0,1,313.258,417.96Z" transform="translate(-225.979 -281.799)" fill="#eb996e"/>
      <path id="Path_2284" data-name="Path 2284" d="M401.1,434.929a4.751,4.751,0,0,1-.041-.762,8.286,8.286,0,0,0-.036-.89c-.036-.348-.031-.742-.082-1.171a26.24,26.24,0,0,0-1.447-6.648,23.826,23.826,0,0,0-1.565-3.4c-.307-.511-.573-.967-.88-1.381-.143-.21-.286-.409-.424-.6a4.5,4.5,0,0,0-.424-.511c-1.1-1.355-1.943-2.046-1.9-2.086a3.494,3.494,0,0,1,.593.476,7.581,7.581,0,0,1,.655.619c.24.251.511.511.8.869.138.174.286.348.44.511a6.854,6.854,0,0,1,.445.6c.317.414.593.895.905,1.386a22.213,22.213,0,0,1,1.606,3.426,24.353,24.353,0,0,1,1.386,6.71c.036.435.031.834.041,1.181s0,.649,0,.895A3.813,3.813,0,0,1,401.1,434.929Z" transform="translate(-265.852 -282.674)" fill="#263238"/>
      <g id="Group_534" data-name="Group 534" transform="translate(136.797 127.343)" opacity="0.3">
        <path id="Path_2285" data-name="Path 2285" d="M420.439,404.147a16.631,16.631,0,0,0-9.809-.895h0a13.567,13.567,0,0,1,13.24,8.561c.235.634.706,1.386,1.381,1.289s.859-.88.859-1.509C426.115,408.284,423.492,405.42,420.439,404.147Z" transform="translate(-410.63 -402.888)"/>
      </g>
      <path id="Path_2286" data-name="Path 2286" d="M270.989,325.954a1.606,1.606,0,0,1-.44-.148c-.281-.107-.675-.286-1.156-.511a24.206,24.206,0,0,1-3.58-2.194,24.546,24.546,0,0,1-3.14-2.762c-.368-.389-.66-.716-.844-.946s-.286-.368-.271-.384.481.46,1.248,1.2a32.49,32.49,0,0,0,3.166,2.685,31.931,31.931,0,0,0,3.493,2.235C270.426,325.653,271.019,325.919,270.989,325.954Z" transform="translate(-200.995 -234.561)" fill="#fff"/>
      <path id="Path_2287" data-name="Path 2287" d="M339.222,336.359a.572.572,0,0,1-.128.087l-.394.235c-.343.21-.864.511-1.534.849a42.961,42.961,0,0,1-5.958,2.511,57.357,57.357,0,0,1-9.323,2.24,90.477,90.477,0,0,1-11.7.972c-4.168.1-8.136,0-11.762-.061a78.365,78.365,0,0,1-9.563-.721,37.1,37.1,0,0,1-6.3-1.463c-.721-.245-1.279-.45-1.647-.609l-.419-.179a.749.749,0,0,1-.143-.066l.153.041.43.153c.373.143.936.332,1.662.563a40.462,40.462,0,0,0,6.29,1.376,82.332,82.332,0,0,0,9.543.66c3.58.066,7.569.138,11.726.041a91.9,91.9,0,0,0,11.67-.951,58.341,58.341,0,0,0,9.3-2.173,46.3,46.3,0,0,0,5.973-2.424c.68-.338,1.207-.609,1.534-.8l.4-.21A.971.971,0,0,1,339.222,336.359Z" transform="translate(-210.177 -243.038)" fill="#fff"/>
      <path id="Path_2288" data-name="Path 2288" d="M265.316,367.5a2.823,2.823,0,0,1-.634-.133l-1.7-.465c-1.432-.4-3.406-.982-5.584-1.631s-4.142-1.258-5.564-1.708l-1.677-.542a3.523,3.523,0,0,1-.6-.235,2.818,2.818,0,0,1,.634.133l1.7.465c1.432.4,3.406.982,5.584,1.631s4.142,1.253,5.564,1.7l1.677.547a3.069,3.069,0,0,1,.6.235Z" transform="translate(-195.128 -255.948)" fill="#fff"/>
      <path id="Path_2289" data-name="Path 2289" d="M261.571,420.769c0,.066-5.114-1.4-11.4-3.273s-11.348-3.457-11.327-3.529,5.114,1.391,11.4,3.273S261.592,420.7,261.571,420.769Z" transform="translate(-189.895 -280.957)" fill="#fff"/>
      <path id="Path_2290" data-name="Path 2290" d="M412.277,307.69a3.537,3.537,0,0,1-.562.445c-.368.271-.921.649-1.611,1.1a54.88,54.88,0,0,1-11.542,5.671c-.777.271-1.411.476-1.856.6a3.448,3.448,0,0,1-.7.174,3.952,3.952,0,0,1,.665-.271l1.826-.68c1.534-.588,3.636-1.457,5.886-2.557s4.224-2.235,5.625-3.094l1.657-1.023A3.625,3.625,0,0,1,412.277,307.69Z" transform="translate(-266.689 -229.03)" fill="#fff"/>
      <path id="Path_2291" data-name="Path 2291" d="M426.031,364.51a6.328,6.328,0,0,1-.828.394c-.537.24-1.335.557-2.327.921a54.038,54.038,0,0,1-16.145,3.212c-1.059.046-1.913.056-2.506.036a6.87,6.87,0,0,1-.915-.041,5.5,5.5,0,0,1,.915-.061c.588,0,1.442-.051,2.5-.123a62.707,62.707,0,0,0,8.157-1.059,63.64,63.64,0,0,0,7.942-2.138c1-.343,1.8-.634,2.352-.844A5.323,5.323,0,0,1,426.031,364.51Z" transform="translate(-270.256 -256.793)" fill="#fff"/>
      <path id="Path_2292" data-name="Path 2292" d="M412.9,430.232a1.1,1.1,0,0,1,.026-.286c.031-.21.077-.476.128-.8s.128-.777.179-1.279.138-1.064.159-1.7c0-.312.041-.644.061-.987s0-.706,0-1.074c0-.742-.031-1.534-.072-2.368a34.725,34.725,0,0,0-.823-5.359,35.124,35.124,0,0,0-1.7-5.15c-.348-.757-.66-1.488-1.023-2.138-.174-.327-.332-.649-.511-.951l-.511-.849c-.312-.552-.649-1.023-.92-1.437a12.782,12.782,0,0,0-.742-1.053l-.481-.66a1.064,1.064,0,0,1-.153-.24,1.536,1.536,0,0,1,.194.2l.511.634a12.27,12.27,0,0,1,.782,1.023c.286.414.634.874.956,1.422l.511.849c.179.3.343.624.511.951A22.021,22.021,0,0,1,411,411.126a30.878,30.878,0,0,1,2.557,10.591c.031.839.077,1.636.046,2.383,0,.373,0,.736-.031,1.084s-.051.675-.077.992c-.036.639-.138,1.2-.2,1.7s-.143.931-.22,1.273-.133.588-.179.8a1.274,1.274,0,0,1,.005.276Z" transform="translate(-271.82 -276.039)" fill="#fff"/>
      <path id="Path_2293" data-name="Path 2293" d="M435,413.374c-.026,0-.041-.419-.159-1.156a9.937,9.937,0,0,0-1.023-2.976,12.54,12.54,0,0,0-2.889-3.641,15.006,15.006,0,0,0-4.914-2.874,19.153,19.153,0,0,0-5.63-.982,35.691,35.691,0,0,0-4.695.179c-1.335.123-2.414.261-3.16.343l-.859.092a1.12,1.12,0,0,1-.3,0,1.155,1.155,0,0,1,.292-.066l.854-.143c.742-.118,1.821-.276,3.155-.43a34.337,34.337,0,0,1,4.725-.235,19.192,19.192,0,0,1,5.707.987,15.127,15.127,0,0,1,4.991,2.946,12.431,12.431,0,0,1,2.894,3.738,9.4,9.4,0,0,1,.936,3.068,6.393,6.393,0,0,1,.061.869A1.256,1.256,0,0,1,435,413.374Z" transform="translate(-274.194 -274.855)" fill="#fff"/>
      <path id="Path_2294" data-name="Path 2294" d="M322.6,395.79a1.2,1.2,0,0,1-.292.051l-.834.087-3.068.256c-2.593.2-6.178.445-10.136.649s-7.553.332-10.156.363h-3.9a1.068,1.068,0,0,1-.292-.031,1.275,1.275,0,0,1,.292-.026h.834l3.068-.077c2.593-.077,6.183-.23,10.141-.44l10.136-.573,3.068-.174.839-.036a1.166,1.166,0,0,1,.3-.051Z" transform="translate(-216.807 -272.076)" fill="#fff"/>
      <g id="Group_535" data-name="Group 535" transform="translate(100.054 118.886)" opacity="0.3">
        <path id="Path_2295" data-name="Path 2295" d="M347.489,392.241c3.222.946,7.671,1.176,10.826,0-2.455,3.493-7.2,4.756-11.312,3.621s-7.906-5.252-8.223-9.512A17.785,17.785,0,0,0,347.489,392.241Z" transform="translate(-338.78 -386.35)"/>
      </g>
      <path id="Path_2296" data-name="Path 2296" d="M382.152,391.278a1.608,1.608,0,0,1-.261.072l-.742.159c-.649.133-1.585.307-2.751.511-2.327.409-5.554.91-9.128,1.35s-6.832.726-9.205.89c-1.176.082-2.133.138-2.792.164l-.757.026a.824.824,0,0,1-.266,0,1.373,1.373,0,0,1,.261-.041l.757-.077,2.782-.251c2.352-.21,5.595-.511,9.174-.967s6.8-.91,9.128-1.268l2.762-.43.757-.107a.808.808,0,0,1,.281-.031Z" transform="translate(-247.262 -269.871)" fill="#fff"/>
      <g id="Group_536" data-name="Group 536" transform="translate(129.377 98.64)" opacity="0.3">
        <path id="Path_2297" data-name="Path 2297" d="M396.273,346.76c-.808,9.256,1.713,18.441,4.214,27.39a3.805,3.805,0,0,0,.685,1.534,1.33,1.33,0,0,0,1.534.424c.782-.4.675-1.534.455-2.373l-6.95-26.592" transform="translate(-396.12 -346.76)"/>
      </g>
      <path id="Path_2298" data-name="Path 2298" d="M143.181,362.508l10.509,51.6h91.233a1.821,1.821,0,0,0,1.821-1.821h0a1.821,1.821,0,0,0-1.821-1.821H226.554l-9.742-47.989a1.994,1.994,0,0,0-1.933-1.6l-69.723-.762a1.989,1.989,0,0,0-1.974,2.388Z" transform="translate(-143.136 -254.648)" fill="#e0e0e0"/>
      <path id="Path_2299" data-name="Path 2299" d="M143.177,362.479a1.226,1.226,0,0,1-.031-.153,1.887,1.887,0,0,1,0-.47,2.046,2.046,0,0,1,.967-1.509,1.979,1.979,0,0,1,.6-.235,3,3,0,0,1,.716-.046h1.642l4.091.036,26.362.251,18.38.184,10.3.107,5.4.056,2.756.026h.706a2,2,0,0,1,.706.2,2.087,2.087,0,0,1,1.023,1.048,3.243,3.243,0,0,1,.189.7l.143.7c.092.46.189.926.281,1.391.194.936.384,1.877.578,2.818l1.166,5.743q1.181,5.8,2.414,11.88c1.647,8.09,3.36,16.5,5.114,25.176l-.123-.1h18.062a3.393,3.393,0,0,1,.711.041,1.974,1.974,0,0,1,1.186.849,1.953,1.953,0,0,1-.675,2.823,1.922,1.922,0,0,1-.859.23H153.609v-.077c-3.217-15.853-5.83-28.761-7.64-37.7-.895-4.47-1.6-7.947-2.071-10.31-.235-1.181-.414-2.081-.511-2.69s-.169-.921-.169-.921.072.312.2.915l.563,2.68c.486,2.363,1.2,5.84,2.122,10.3l7.722,37.69-.1-.082h91.294a1.75,1.75,0,0,0,.747-.2,1.7,1.7,0,0,0,.583-2.46,1.667,1.667,0,0,0-1.023-.69,3.439,3.439,0,0,0-.66-.041H226.447v-.1q-2.639-13.041-5.114-25.181-1.232-6.065-2.409-11.88l-1.2-5.82c-.189-.946-.378-1.882-.568-2.818-.1-.465-.189-.931-.286-1.4l-.138-.69a2.907,2.907,0,0,0-.179-.66,1.867,1.867,0,0,0-.874-.941,1.9,1.9,0,0,0-.629-.184h-.685l-2.762-.031-5.4-.061-10.294-.123-18.38-.215-26.362-.322-4.091-.056-1.642-.026a3.171,3.171,0,0,0-.706.036,2.076,2.076,0,0,0-.588.23,1.989,1.989,0,0,0-.967,1.473A2.377,2.377,0,0,0,143.177,362.479Z" transform="translate(-143.131 -254.619)" fill="#263238"/>
      <path id="Path_2300" data-name="Path 2300" d="M219.664,408.122a3.012,3.012,0,1,1-3.012-3.012,3.012,3.012,0,0,1,3.012,3.012Z" transform="translate(-177.582 -276.63)" fill="#fff"/>
      <path id="Path_2301" data-name="Path 2301" d="M143.38,365.61h4.787l13.046.061,43.034.3,6.224.051H212a3.732,3.732,0,0,1,.782.046,2.109,2.109,0,0,1,.736.3,2.143,2.143,0,0,1,.926,1.258c.118.511.2.982.3,1.473.772,3.887,1.534,7.635,2.225,11.2,1.411,7.16,2.685,13.578,3.749,18.983l2.511,12.785c.286,1.509.511,2.68.67,3.483.072.394.128.7.169.91a2.7,2.7,0,0,1,.046.307s-.031-.1-.072-.3-.112-.511-.194-.905c-.164-.8-.4-1.969-.716-3.472-.614-3.027-1.493-7.395-2.588-12.785l-3.8-18.973q-1.066-5.37-2.235-11.2c-.1-.481-.194-.982-.3-1.452a1.918,1.918,0,0,0-.823-1.11,1.882,1.882,0,0,0-.655-.245,3.416,3.416,0,0,0-.731-.041H210.47l-6.224-.046-43.039-.378-13.041-.143-3.549-.051H143.7Z" transform="translate(-143.253 -257.33)" fill="#263238"/>
      <path id="Path_2302" data-name="Path 2302" d="M366.723,212.37a33.8,33.8,0,0,1-10.78,25.5q-2.419-6.981-4.822-13.961" transform="translate(-244.756 -182.456)" fill="#263238"/>
      <path id="Path_2303" data-name="Path 2303" d="M303.168,156.021a20.472,20.472,0,0,1,13.756-1.662,43.325,43.325,0,0,1,13.01,5.38,21.309,21.309,0,0,1,6.219,4.848c3,3.779,5.973,9.988,6.259,14.83.235,3.9-1.258,13.649-2.9,17.188-1.509,3.247-8.581,5.723-12.074,6.525L295.4,165.85a16.232,16.232,0,0,1,7.768-9.829Z" transform="translate(-217.531 -153.876)" fill="#263238"/>
      <path id="Path_2304" data-name="Path 2304" d="M291.065,166.581l7.671-1.371c-4.2,10-5.339,32.857-7.737,43.433-2.833-4.091-9.4-16.62-9.052-21.6S281.967,165.737,291.065,166.581Z" transform="translate(-210.951 -159.414)" fill="#263238"/>
      <path id="Path_2305" data-name="Path 2305" d="M331.5,184.536a13.118,13.118,0,0,0-9.87-12.074l-17.689-4.51c-7.64-.823-12.744,8.576-13.245,16.247-.557,8.525-.9,17.515.1,23.877,2,12.785,11.8,14.442,11.8,14.442v9.819l5.917,24.5,19.07-26.347,3.948-45.79C331.541,184.475,331.5,184.828,331.5,184.536Z" transform="translate(-214.969 -160.729)" fill="#ffbe9d"/>
      <path id="Path_2306" data-name="Path 2306" d="M298.72,217.243a1.642,1.642,0,0,0,1.58,1.657,1.57,1.57,0,0,0,1.693-1.478,1.642,1.642,0,0,0-1.575-1.657,1.57,1.57,0,0,0-1.7,1.478Z" transform="translate(-219.153 -184.112)" fill="#263238"/>
      <path id="Path_2307" data-name="Path 2307" d="M294.968,207.918c.2.215,1.447-.7,3.212-.7s3.068.895,3.247.68c.1-.1-.113-.481-.675-.895a4.51,4.51,0,0,0-2.6-.808,4.357,4.357,0,0,0-2.557.818C295.034,207.438,294.85,207.821,294.968,207.918Z" transform="translate(-217.303 -179.442)" fill="#263238"/>
      <path id="Path_2308" data-name="Path 2308" d="M328.8,217.238a1.642,1.642,0,0,0,1.58,1.657,1.565,1.565,0,0,0,1.693-1.483,1.642,1.642,0,0,0-1.575-1.657,1.57,1.57,0,0,0-1.7,1.483Z" transform="translate(-233.85 -184.108)" fill="#263238"/>
      <path id="Path_2309" data-name="Path 2309" d="M327.706,207.918c.2.215,1.452-.7,3.217-.7s3.068.895,3.247.68c.092-.1-.113-.481-.675-.895a4.541,4.541,0,0,0-2.583-.808,4.383,4.383,0,0,0-2.557.818C327.793,207.438,327.609,207.821,327.706,207.918Z" transform="translate(-233.304 -179.442)" fill="#263238"/>
      <path id="Path_2310" data-name="Path 2310" d="M312.727,222.626a11.758,11.758,0,0,0-2.869-.511c-.45-.046-.874-.138-.951-.445a2.276,2.276,0,0,1,.307-1.335q.639-1.631,1.34-3.431c1.862-4.879,3.206-8.893,3.012-8.965s-1.867,3.82-3.728,8.694q-.675,1.8-1.284,3.447a2.618,2.618,0,0,0-.24,1.769,1.125,1.125,0,0,0,.742.66,2.751,2.751,0,0,0,.762.107A11.45,11.45,0,0,0,312.727,222.626Z" transform="translate(-223.811 -180.291)" fill="#263238"/>
      <path id="Path_2311" data-name="Path 2311" d="M331.438,265.79s-4.163,8.8-16.958,7.558v-3.007A32.218,32.218,0,0,0,331.438,265.79Z" transform="translate(-226.853 -208.558)" fill="#eb996e"/>
      <path id="Path_2312" data-name="Path 2312" d="M328.811,195.855c.174.481,1.933.256,4,.511s3.743.823,4.02.394c.123-.21-.169-.66-.844-1.125a6.648,6.648,0,0,0-2.976-1.023,6.766,6.766,0,0,0-3.135.358C329.118,195.251,328.734,195.625,328.811,195.855Z" transform="translate(-233.851 -173.755)" fill="#263238"/>
      <path id="Path_2313" data-name="Path 2313" d="M296.046,197.263c.307.4,1.534,0,2.987-.026s2.7.276,2.987-.143c.123-.2-.072-.6-.609-.987a4.337,4.337,0,0,0-4.812.138C296.077,196.655,295.908,197.069,296.046,197.263Z" transform="translate(-217.824 -174.187)" fill="#263238"/>
      <path id="Path_2314" data-name="Path 2314" d="M297.77,167.785a5.638,5.638,0,0,1,4.966-3.181,10.914,10.914,0,0,1,5.9,1.718c7.615,4.4,11.532,15.035,19.055,19.592,1.851,1.12,4.26.092,5.835,1.575s2.593,3.856,1.723,5.835a17.938,17.938,0,0,0,2.613-4.413,6.049,6.049,0,0,0-.215-4.986c-.649-1.13-1.8-1.989-2.112-3.252-.281-1.115.159-2.276.113-3.421a7.5,7.5,0,0,0-1.171-3.263,33.269,33.269,0,0,0-12.227-12.862,21.668,21.668,0,0,0-11.225-2.9,16.559,16.559,0,0,0-10.7,4.239c-1.682,1.57-3.452,3.191-2.557,5.318" transform="translate(-218.571 -156)" fill="#263238"/>
      <path id="Path_2315" data-name="Path 2315" d="M367.56,217.893c.133-.368,6.807-2.772,6.894,4.316.087,6.888-6.863,5.533-6.878,5.334S367.56,217.893,367.56,217.893Z" transform="translate(-252.788 -184.819)" fill="#ffbe9d"/>
      <path id="Path_2316" data-name="Path 2316" d="M371.693,227.05c.031,0,.118.082.322.174a1.217,1.217,0,0,0,.9,0,2.971,2.971,0,0,0,1.345-2.675,3.953,3.953,0,0,0-.348-1.718,1.4,1.4,0,0,0-.915-.91.6.6,0,0,0-.7.332c-.092.194-.046.332-.087.343s-.148-.113-.092-.4a.767.767,0,0,1,.266-.43.89.89,0,0,1,.66-.184,1.677,1.677,0,0,1,1.263,1.059,4.009,4.009,0,0,1,.435,1.913c-.031,1.391-.726,2.7-1.723,2.992a1.278,1.278,0,0,1-1.094-.169C371.7,227.219,371.668,227.066,371.693,227.05Z" transform="translate(-254.804 -186.955)" fill="#eb996e"/>
      <path id="Path_2317" data-name="Path 2317" d="M337.506,189.468a2.733,2.733,0,0,1-.414-.23c-.266-.169-.675-.394-1.156-.736a23.57,23.57,0,0,1-3.723-3.385,66.717,66.717,0,0,1-4.546-5.907,53.911,53.911,0,0,0-5.682-7.078,21.566,21.566,0,0,0-3.672-2.9,18.068,18.068,0,0,0-3.958-1.8,19.627,19.627,0,0,0-7.3-.895,18.885,18.885,0,0,0-4.889.956c-.568.174-.987.363-1.278.476a2.624,2.624,0,0,1-.45.159,3.31,3.31,0,0,1,.424-.215,11.068,11.068,0,0,1,1.263-.511,17.623,17.623,0,0,1,4.914-1.064,19.53,19.53,0,0,1,7.4.818,18.042,18.042,0,0,1,4.035,1.81,21.99,21.99,0,0,1,3.728,2.941,52.776,52.776,0,0,1,5.7,7.16,71.216,71.216,0,0,0,4.48,5.927,25.723,25.723,0,0,0,3.626,3.437c.47.353.864.593,1.115.777A2.811,2.811,0,0,1,337.506,189.468Z" transform="translate(-219.993 -159.933)" fill="#455a64"/>
      <path id="Path_2320" data-name="Path 2320" d="M360.955,206.093c.107,1.882.194,3.866-.675,5.538s-3.068,2.813-4.695,1.877c-1.335-.762-1.734-2.475-1.964-3.994-.649-4.388-.951-8.822-1.642-13.2Z" transform="translate(-245.176 -174.609)" fill="#263238"/>
      <path id="Path_2321" data-name="Path 2321" d="M301.32,170.211c0,.036.609-.118,1.708-.153a11.906,11.906,0,0,1,4.562.834,15.04,15.04,0,0,1,2.854,1.473,30.314,30.314,0,0,1,2.946,2.25,35.165,35.165,0,0,1,5.769,6.219c.874,1.227,1.652,2.49,2.49,3.662a17.854,17.854,0,0,0,2.762,3.1,30.882,30.882,0,0,0,5.82,3.892c1.764.931,3.237,1.585,4.255,2.046l1.176.511a2.08,2.08,0,0,0,.424.153,1.974,1.974,0,0,0-.389-.22l-1.151-.568c-1.023-.511-2.45-1.186-4.183-2.143a31.848,31.848,0,0,1-5.717-3.938,17.443,17.443,0,0,1-2.69-3.068c-.823-1.156-1.6-2.419-2.48-3.662a34.6,34.6,0,0,0-5.85-6.265,30.217,30.217,0,0,0-3.007-2.25,15.009,15.009,0,0,0-2.93-1.457,11.44,11.44,0,0,0-4.664-.726,7.909,7.909,0,0,0-1.273.179,1.636,1.636,0,0,0-.43.128Z" transform="translate(-220.423 -161.699)" fill="#455a64"/>
      <path id="Path_2322" data-name="Path 2322" d="M369.9,198.672a3.125,3.125,0,0,0,.609.409l1.749,1.023.583.332a1.79,1.79,0,0,0,.757.251.726.726,0,0,0,.465-.107.6.6,0,0,0,.256-.455,1.534,1.534,0,0,0-.322-.869l-2.046-3.242-.276.251a7.221,7.221,0,0,0,4.679,1.4,1.984,1.984,0,0,0,.629-.107.844.844,0,0,0,.511-.465.747.747,0,0,0-.118-.7,2.692,2.692,0,0,0-.389-.43A14.355,14.355,0,0,1,374.641,193a24.78,24.78,0,0,1-1.493-3.171,3.609,3.609,0,0,0,.22.926,12.5,12.5,0,0,0,1.023,2.383,13.665,13.665,0,0,0,2.332,3.068c.256.245.511.511.414.742s-.476.327-.839.327a6.929,6.929,0,0,1-2.332-.281,7.016,7.016,0,0,1-2.1-1.023l-.818-.6.547.854,2.046,3.217a1.309,1.309,0,0,1,.291.675c0,.194-.174.307-.394.291a3.416,3.416,0,0,1-1.238-.511l-1.8-.921a3.182,3.182,0,0,0-.6-.3Z" transform="translate(-253.932 -171.443)" fill="#455a64"/>
      <path id="Path_2325" data-name="Path 2325" d="M391.8,459a.456.456,0,0,1-.118,0l-.358.036-1.365.113c-1.186.1-2.9.21-5.032.338-4.25.251-10.126.511-16.62.619s-12.386.046-16.641-.066c-2.127-.051-3.851-.113-5.037-.164l-1.371-.072h1.371l5.042.087c4.255.061,10.136.092,16.631,0s12.366-.338,16.615-.542l5.037-.251,1.371-.061h.353Z" transform="translate(-241.658 -302.961)" fill="#fff"/>
      <path id="Path_2327" data-name="Path 2327" d="M230.41,282.61s.859-1.58,2.01-1.58,2.01,2.583,2.01,2.583" transform="translate(-145.312 -233.945)" fill="none" stroke="#263238" stroke-linecap="round" stroke-linejoin="round" stroke-width="1"/>
    </g>
  </g>
</svg>
