<svg id="list_1_" data-name="list (1)" xmlns="http://www.w3.org/2000/svg" width="36.25" height="48.446" viewBox="0 0 36.25 48.446">
  <path id="Path_4284" data-name="Path 4284" d="M87.187,10.711v-9.7H66.579a2.006,2.006,0,0,0-2.006,2.006V47.356a2.006,2.006,0,0,0,2.006,2.006h32.1a2.006,2.006,0,0,0,2.006-2.006v-32.9H90.936a3.754,3.754,0,0,1-3.75-3.75Zm-8.1,28.22L74.817,43.2a1.416,1.416,0,0,1-2,0l-1.772-1.772a1.417,1.417,0,0,1,2-2l.77.77,3.267-3.267a1.416,1.416,0,1,1,2,2Zm0-9.443-4.268,4.268a1.416,1.416,0,0,1-2,0l-1.772-1.772a1.417,1.417,0,0,1,2-2l.77.77,3.267-3.267a1.416,1.416,0,1,1,2,2Zm0-10.165-4.268,4.268a1.416,1.416,0,0,1-2,0L71.042,21.82a1.417,1.417,0,0,1,2-2l.77.77,3.267-3.267a1.416,1.416,0,1,1,2,2ZM93.215,41.48H84.15a1.417,1.417,0,0,1,0-2.833h9.066a1.417,1.417,0,0,1,0,2.833ZM82.733,30.62A1.417,1.417,0,0,1,84.15,29.2h9.025a1.417,1.417,0,1,1,0,2.833H84.15A1.417,1.417,0,0,1,82.733,30.62Zm11.858-9.443a1.417,1.417,0,0,1-1.417,1.417H84.15a1.417,1.417,0,1,1,0-2.833h9.025A1.417,1.417,0,0,1,94.591,21.177Z" transform="translate(-64.573 -0.916)" fill="#e4001c"/>
  <path id="Path_4285" data-name="Path 4285" d="M334.038,9.794a.918.918,0,0,0,.917.917h9.887L334.038,0Z" transform="translate(-308.591 0)" fill="#e4001c"/>
</svg>
