<svg xmlns="http://www.w3.org/2000/svg" xmlns:xlink="http://www.w3.org/1999/xlink" width="266" height="241.998" viewBox="0 0 266 241.998">
  <defs>
    <linearGradient id="linear-gradient" y1="0.5" x2="1" y2="0.5" gradientUnits="objectBoundingBox">
      <stop offset="0.002" stop-color="#d7dff2"/>
      <stop offset="0.486" stop-color="#e9ecf1"/>
      <stop offset="1" stop-color="#f1f1f1"/>
    </linearGradient>
    <linearGradient id="linear-gradient-2" x1="-33.5" y1="0.5" x2="-32.5" y2="0.5" xlink:href="#linear-gradient"/>
  </defs>
  <g id="Group_349" data-name="Group 349" transform="translate(-97.823 -60)">
    <g id="Group_44" data-name="Group 44" transform="translate(97.823 103.166)">
      <g id="Group_43" data-name="Group 43" transform="translate(0 0)">
        <path id="Path_330" data-name="Path 330" d="M63.3,476c4.209,17.99,13.119,33.541,27.2,41.079,29.264,15.665,95.263,7.586,144.521-1.7a112.792,112.792,0,0,0,64.139-36.667Z" transform="translate(-60.424 -371.751)" fill="#e4001c" opacity="0.1"/>
        <path id="Path_331" data-name="Path 331" d="M342.865,65.6H315.838a2.336,2.336,0,1,1,0-4.672h4.672a2.336,2.336,0,0,1,0-4.672h-3.336a2.336,2.336,0,0,1,0-4.672H331.28a37.327,37.327,0,0,0-11-3.033c-38.463-4.941-52.2-1.673-57.04,1.7a53.864,53.864,0,0,1-19.77,8.665c-23.732,4.9-68.113,10.787-108.339-1.886-19.993-6.3-34.853,4.345-43.758,22.131H347.556a41.742,41.742,0,0,0-3.174-14.121A2.323,2.323,0,0,1,342.865,65.6Z" transform="translate(-81.689 -46.03)" fill="#e4001c" opacity="0.1"/>
        <path id="Path_332" data-name="Path 332" d="M52.022,321.15a119.06,119.06,0,0,0,1.047,31.386l237.287,8.677a111.528,111.528,0,0,0,16.487-25.143Zm93.85,22.391H141.2a2.336,2.336,0,1,1,0,4.672H114.173a2.336,2.336,0,1,1,0-4.672h4.672a2.336,2.336,0,0,1,0-4.672h-3.336a2.336,2.336,0,1,1,0-4.672h27.027a2.336,2.336,0,1,1,0,4.672h3.336a2.336,2.336,0,1,1,0,4.672Z" transform="translate(-51.44 -254.446)" fill="#e4001c" opacity="0.1"/>
        <path id="Path_333" data-name="Path 333" d="M319.259,183.34,60.2,189.644a103.46,103.46,0,0,0-6.2,26.75H314.72a110.679,110.679,0,0,0,3.765-17.052A80.8,80.8,0,0,0,319.259,183.34ZM106.594,203.988h-4.672a2.336,2.336,0,0,1,0,4.672H74.895a2.336,2.336,0,1,1,0-4.672h4.672a2.336,2.336,0,0,1,0-4.672H76.231a2.336,2.336,0,1,1,0-4.672h27.027a2.336,2.336,0,1,1,0,4.672h3.336a2.336,2.336,0,0,1,0,4.672Z" transform="translate(-53.379 -150.048)" fill="#e4001c" opacity="0.1"/>
        <path id="Path_357" data-name="Path 357" d="M351.19,791.122c9.533,3.205,21.164,1.256,31.98,1.481a11.012,11.012,0,0,1,4.236.676,9.668,9.668,0,0,1,2.587,2.218c3.031,2.859,9.24,3.778,14.669,3.293s10.406-2.09,15.517-3.312c8.854-2.114,18.977-3.074,27.71-.771a7.223,7.223,0,0,0,2.5.371c1.916-.189,2.485-1.722,3.824-2.6,2.425-1.581,7.669-1.151,8.728-3.234.623-1.212-.81-2.473-2.369-3.307-5.969-3.191-14.509-3.717-22.321-3.225s-15.493,1.85-23.346,1.855c-9.783,0-19.236-2.083-28.925-2.936-6.711-.592-14.036-.519-20.327,1.212C358.857,784.743,357.353,788.972,351.19,791.122Z" transform="translate(-278.514 -603.03)" fill="#4f44ff" opacity="0.1"/>
        <rect id="Rectangle_86" data-name="Rectangle 86" width="12.608" height="1.697" rx="0.849" transform="translate(121.839 24.953)" fill="#eaeaf3"/>
        <ellipse id="Ellipse_102" data-name="Ellipse 102" cx="1.212" cy="1.212" rx="1.212" ry="1.212" transform="translate(137.599 24.711)" fill="#eaeaf3"/>
      </g>
    </g>
    <g id="Group_45" data-name="Group 45" transform="translate(141.98 60)">
      <path id="Path_21" data-name="Path 21" d="M298.325,239.454c3.656,13.968-3.857,30.738-10.231,43.709,0,0,35.8,25.589,80.792,2.026l-3.68-9.805a60.141,60.141,0,0,1-3.637-33.631l7.611-42.322a20,20,0,0,0-13.608-22.579l-10.192-3.237-3.18-1.008a38.77,38.77,0,0,0-11.7-1.81h-4.156a38.715,38.715,0,0,0-17.847,4.357h0l-9.633,4.994a19.951,19.951,0,0,0-10.111,22.8Z" transform="translate(-246.83 -106.549)" fill="#e4001c"/>
      <path id="Path_22" data-name="Path 22" d="M321.5,174.637a19.111,19.111,0,0,1,8.642,5.3c3.927,4,39.022,65.978,39.022,65.978,1.257,7.439-24.546,11.63-24.546,11.63l-23.245-38.839Z" transform="translate(-207.467 -102.006)" fill="#e4001c"/>
      <path id="Path_23" data-name="Path 23" d="M352.637,204.485a33.678,33.678,0,0,0-22.435,8.039c-.572.48.253,1.3.821.819a32.4,32.4,0,0,1,21.614-7.7A.581.581,0,0,0,352.637,204.485Z" transform="translate(-197.252 -66.704)" fill="#fff"/>
      <path id="Path_24" data-name="Path 24" d="M319.656,174.637a19.111,19.111,0,0,0-8.644,5.3c-3.925,4-39.022,65.978-39.022,65.978-1.255,7.439,24.546,11.63,24.546,11.63l23.245-38.839Z" transform="translate(-265.93 -102.006)" fill="#e4001c"/>
      <path id="Path_25" data-name="Path 25" d="M298.68,213.474a27.305,27.305,0,0,0-23.232-9.091c-.738.07-.744,1.231,0,1.159a26.208,26.208,0,0,1,22.411,8.753C298.357,214.851,299.175,214.028,298.68,213.474Z" transform="translate(-262.444 -66.979)" fill="#fff"/>
      <path id="Path_26" data-name="Path 26" d="M381.834,224.393h24.789L366.86,259.087l-38.308,2.768-51.4-38.742,29.412-.919Z" transform="translate(-259.777 -45.755)" fill="#4d8593"/>
      <path id="Path_27" data-name="Path 27" d="M381.834,224.393h24.789L366.86,259.087l-38.308,2.768-51.4-38.742,29.412-.919Z" transform="translate(-259.777 -45.755)" fill="#393939" style="mix-blend-mode: multiply;isolation: isolate"/>
      <g id="Group_32" data-name="Group 32" transform="translate(48.093 95.98)">
        <path id="Path_28" data-name="Path 28" d="M292.748,185.891c.044-.744-1.115-.742-1.159,0a208.646,208.646,0,0,0,.877,35.128c.079.733,1.24.742,1.159,0A208.881,208.881,0,0,1,292.748,185.891Z" transform="translate(-291.222 -185.334)" fill="url(#linear-gradient)"/>
        <path id="Path_29" data-name="Path 29" d="M322.6,185.891c-.044-.744,1.118-.742,1.161,0a208.878,208.878,0,0,1-.878,35.128c-.081.733-1.242.742-1.161,0A208.65,208.65,0,0,0,322.6,185.891Z" transform="translate(-255.153 -185.334)" fill="url(#linear-gradient-2)"/>
      </g>
      <path id="Path_30" data-name="Path 30" d="M310.819,189.59h0a7.867,7.867,0,0,0,7.867-7.867V165.837a2.163,2.163,0,0,0-2.161-2.161H305.113a2.162,2.162,0,0,0-2.161,2.161v15.886A7.867,7.867,0,0,0,310.819,189.59Z" transform="translate(-229.255 -114.971)" fill="#f1cbb3"/>
      <path id="Path_31" data-name="Path 31" d="M310.819,186.994h0a7.867,7.867,0,0,0,7.867-7.867V163.241a2.163,2.163,0,0,0-2.161-2.161H305.113a2.162,2.162,0,0,0-2.161,2.161v15.886A7.867,7.867,0,0,0,310.819,186.994Z" transform="translate(-229.255 -118.041)" fill="#e29f77"/>
      <g id="Group_33" data-name="Group 33" transform="translate(53.094 6.208)">
        <path id="Path_32" data-name="Path 32" d="M351.239,177.944c-1.172,5.095-5.025,6.7-8.613,7.727A37.069,37.069,0,0,1,336,195.121a20.2,20.2,0,0,1-10.526,6.745l-.358.072c-.24.048-.48.12-.718.168-.168.024-.336.024-.5.048-.144.024-.264.024-.408.048-.31.024-.644.048-.956.048-.334,0-.646-.024-.956-.048-.144-.024-.288-.024-.432-.048-.166-.024-.334-.024-.478-.048-.262-.048-.478-.12-.718-.168-.118-.024-.238-.048-.382-.072a20.2,20.2,0,0,1-10.525-6.745,37.776,37.776,0,0,1-5.885-8.037c-.262-.48-.5-.934-.74-1.412a15.843,15.843,0,0,1-3.183-1.172,9.012,9.012,0,0,1-5.407-6.555c-.646-2.846-.31-6.315,1.148-8.229a3.2,3.2,0,0,1,2.368-1.41,5.663,5.663,0,0,1,3.255.932,44.359,44.359,0,0,1,9.377-18.825,15.2,15.2,0,0,1,6.243-5,10.528,10.528,0,0,1,3.754-1.1,34.173,34.173,0,0,1,5.121,0,10.424,10.424,0,0,1,3.73,1.1,15.214,15.214,0,0,1,6.245,5,43.838,43.838,0,0,1,9.375,18.825,8.116,8.116,0,0,1,1.46-.67,4.444,4.444,0,0,1,1.794-.262C351.071,168.591,352.147,173.9,351.239,177.944Z" transform="translate(-293.513 -144.207)" fill="#f1cbb3"/>
      </g>
      <path id="Path_33" data-name="Path 33" d="M354.106,154.774c-4.687-.369-8.965-5.363-12.453-8.238-3.925-3.233-7.546-4.322-12.414-4.811a24.245,24.245,0,0,0-6.247-.225c-2.563.419-3.99,2.01-6.485,2.168-6.9.437-9.585.227-13.769,6.18-3,4.272-6.219,9.738-11.056,12.136,1.181.085,5.889-.7,6.784.065.956.819-.181,4.222-.124,5.662a16.367,16.367,0,0,0,3.46,8.668,60.627,60.627,0,0,0,3.872,13.719c-.142-8.744.629-19.034,5.352-26.641a42.871,42.871,0,0,1,.36,6.365c3.438-2.814,5.9-6.568,8.976-9.679,2.412,3.508,4.667,6.538,8.565,8.67.216-3.554,1.456-6.583,2.467-9.945,2.03,2.787,3.2,6.068,5.136,8.915,2.218,3.255,4.935,6.223,6.363,9.986,1.936,5.1,1.469,11.562.965,16.943,1.757-4.121,3.995-7.5,4.835-12.014a52.744,52.744,0,0,0,.875-9.615c-.015-5.95-1.006-11.429-1.207-17.244C350.454,155.739,352.242,155.922,354.106,154.774Z" transform="translate(-242.585 -141.363)" fill="#404040"/>
      <g id="Group_41" data-name="Group 41" transform="translate(68.96 29.651)">
        <g id="Group_35" data-name="Group 35">
          <g id="Group_34" data-name="Group 34">
            <path id="Path_34" data-name="Path 34" d="M301.431,159.265a.685.685,0,0,0,.644-.365,4.305,4.305,0,0,1,5.728-2.2.684.684,0,1,0,.57-1.244,5.646,5.646,0,0,0-7.511,2.811.681.681,0,0,0,.288.923A.629.629,0,0,0,301.431,159.265Z" transform="translate(-300.782 -154.947)" fill="#253770"/>
          </g>
        </g>
        <g id="Group_37" data-name="Group 37" transform="translate(20.47 1.209)">
          <g id="Group_36" data-name="Group 36">
            <path id="Path_35" data-name="Path 35" d="M310.335,156.876a.578.578,0,0,0,.611.122,3.614,3.614,0,0,1,4.848,1.744.574.574,0,1,0,1.046-.476,4.742,4.742,0,0,0-6.315-2.342.578.578,0,0,0-.325.749A.562.562,0,0,0,310.335,156.876Z" transform="translate(-310.159 -155.501)" fill="#253770"/>
          </g>
        </g>
        <g id="Group_39" data-name="Group 39" transform="translate(6.375 17.143)">
          <g id="Group_38" data-name="Group 38">
            <path id="Path_36" data-name="Path 36" d="M309.7,168.58a.683.683,0,0,0-.567-.474,4.292,4.292,0,0,1-4.06-4.573.682.682,0,1,0-1.36-.1,5.631,5.631,0,0,0,5.25,6.029.683.683,0,0,0,.762-.594A.648.648,0,0,0,309.7,168.58Z" transform="translate(-303.702 -162.8)" fill="#253770"/>
          </g>
        </g>
        <g id="Group_40" data-name="Group 40" transform="translate(12.839 6.259)">
          <path id="Path_37" data-name="Path 37" d="M309.625,172.323a2.557,2.557,0,0,0,1.414-.413c1.345-.875,1.683-2.881.908-5.363l-1.755-8.264a.589.589,0,1,0-1.153.244l1.766,8.319c.731,2.346.264,3.634-.41,4.073-.694.452-1.751.194-2.707-.644a.627.627,0,0,0-.858.022.558.558,0,0,0,0,.8A4.361,4.361,0,0,0,309.625,172.323Z" transform="translate(-306.663 -157.814)" fill="#253770"/>
        </g>
        <path id="Path_38" data-name="Path 38" d="M314.389,160.189a2.022,2.022,0,1,1-1.829-2.368A2.118,2.118,0,0,1,314.389,160.189Z" transform="translate(-289.441 -151.555)" fill="#253770"/>
        <path id="Path_39" data-name="Path 39" d="M306.241,160.186a2.022,2.022,0,1,1-1.829-2.366A2.123,2.123,0,0,1,306.241,160.186Z" transform="translate(-299.081 -151.555)" fill="#253770"/>
      </g>
      <path id="Path_40" data-name="Path 40" d="M311.491,239.493l-2-10.336a4.611,4.611,0,0,1,2.611-5.047l2.2-1.011a7.2,7.2,0,0,1,7.4.877l7.782,6.062a3.752,3.752,0,0,0,4.233.295l.434-.253,6.164-3.586s33.356-28.012,43-18.041a12.058,12.058,0,0,1-7.013,18.329l-30.664,7.95-8.24,2.141-5.422,1.414a6.3,6.3,0,0,1-3.351-.085l-11.158-3.475a1.3,1.3,0,0,0-1.668,1.022l-1.27,3.929A1.573,1.573,0,0,1,311.491,239.493Z" transform="translate(-221.62 -64.545)" fill="#f1cbb3"/>
      <path id="Path_41" data-name="Path 41" d="M344.886,239.493l2-10.336a4.616,4.616,0,0,0-2.611-5.047l-2.2-1.011a7.2,7.2,0,0,0-7.4.877l-7.784,6.062a3.752,3.752,0,0,1-4.233.295l-.434-.253-6.162-3.586s-33.355-28.012-43-18.041a12.058,12.058,0,0,0,7.013,18.329l30.666,7.95,8.238,2.141,5.424,1.414a6.3,6.3,0,0,0,3.348-.085l11.158-3.475a1.3,1.3,0,0,1,1.668,1.022l1.273,3.929A1.573,1.573,0,0,0,344.886,239.493Z" transform="translate(-266.998 -64.545)" fill="#f1cbb3"/>
      <g id="Group_43-2" data-name="Group 43" transform="translate(31.532 127.684)">
        <g id="Group_42" data-name="Group 42">
          <rect id="Rectangle_10" data-name="Rectangle 10" width="93.469" height="60.184" transform="translate(3.842)" fill="#e0e0e0"/>
          <path id="Path_42" data-name="Path 42" d="M382.451,227.43H285.973a2.336,2.336,0,0,0-2.338,2.338h0a2.338,2.338,0,0,0,2.338,2.338h96.478a2.339,2.339,0,0,0,2.338-2.338h0A2.338,2.338,0,0,0,382.451,227.43Z" transform="translate(-283.635 -167.246)" fill="silver"/>
        </g>
        <path id="Path_43" data-name="Path 43" d="M319.619,220.017a8.143,8.143,0,1,1-8.144-8.142A8.144,8.144,0,0,1,319.619,220.017Z" transform="translate(-260.336 -185.644)" fill="#fff"/>
      </g>
      <g id="Group_44-2" data-name="Group 44" transform="translate(0 176.202)">
        <path id="Path_44" data-name="Path 44" d="M269.629,244.077a17.6,17.6,0,0,0,13.509,13.293,16.981,16.981,0,0,0,1.74.275c22.5,6.177,47.3,10.558,73.984,13.431,7.273.8,14.7,1.467,22.249,2.034l13.042,12.121c.116.1.233.214.371.312,5.865,4.615,14.31-.723,13.04-8.074l-.762-4.339c0-.039-.02-.059-.02-.079a12.839,12.839,0,0,0-9.836-8.1l-13.49-2.462c-6.511-2.052-12.924-4.126-19.161-6.217-27.156-9.111-51.342-18.809-70.014-31.967a17.558,17.558,0,0,0-24.655,19.768Z" transform="translate(-269.19 -221.469)" fill="#393939"/>
        <path id="Path_45" data-name="Path 45" d="M310.271,252.831c7.273.8,14.7,1.467,22.249,2.034l13.042,12.121c.116.1.234.214.371.312,5.865,4.615,14.311-.722,13.04-8.074l-.762-4.339c0-.039-.02-.059-.02-.079a12.839,12.839,0,0,0-9.836-8.1l-13.49-2.462c-6.511-2.052-12.924-4.126-19.161-6.217Z" transform="translate(-220.598 -203.224)"/>
        <path id="Path_46" data-name="Path 46" d="M295.777,285.067c.135-.118.253-.216.371-.314l13.217-12.3c6.745-.705,13.413-1.43,19.942-2.191,29.092-3.362,55.6-7.371,75.137-13.158.587-.059,1.152-.157,1.74-.273a17.559,17.559,0,1,0-11.143-33.043c-20.021,12.944-43.757,23.4-69.957,32.164-6.588,2.229-13.333,4.32-20.215,6.335l.02.079-11.556,2.111a12.845,12.845,0,0,0-9.814,8.074c0,.039-.02.059-.02.1l-.764,4.339C281.464,284.342,289.912,289.662,295.777,285.067Z" transform="translate(-253.32 -222.086)" fill="#393939"/>
        <path id="Path_47" data-name="Path 47" d="M295.777,266.714c.135-.118.253-.216.371-.314l13.217-12.3c6.745-.705,13.413-1.43,19.942-2.192-1.057-3.617-2.8-9.462-4.224-14.311-6.588,2.229-13.333,4.32-20.215,6.335l.02.079-11.556,2.111a12.845,12.845,0,0,0-9.814,8.074c0,.039-.02.059-.02.1l-.764,4.339C281.464,265.989,289.912,271.309,295.777,266.714Z" transform="translate(-253.32 -203.733)"/>
      </g>
      <path id="Path_48" data-name="Path 48" d="M327.824,172.484c-.277-.683-1.4-.384-1.118.308,6.649,16.391-30,19.178-25.227-.253.179-.725-.941-1.032-1.118-.308C295.116,193.566,335.164,190.58,327.824,172.484Z" transform="translate(-232.881 -105.341)" fill="#fff"/>
    </g>
  </g>
</svg>
