<svg xmlns="http://www.w3.org/2000/svg" width="20.126" height="20.127" viewBox="0 0 20.126 20.127">
  <g id="menu" transform="translate(-0.001)">
    <g id="Group_6859" data-name="Group 6859" transform="translate(0.001)">
      <g id="Group_6858" data-name="Group 6858" transform="translate(0)">
        <path id="Path_4299" data-name="Path 4299" d="M7.312,0H1.533A1.534,1.534,0,0,0,0,1.532V7.311A1.534,1.534,0,0,0,1.533,8.843H7.312A1.534,1.534,0,0,0,8.844,7.311V1.532A1.534,1.534,0,0,0,7.312,0Z" transform="translate(-0.001)" fill="#b6b7b7"/>
        <path id="Path_4300" data-name="Path 4300" d="M173.817,0h-5.778a1.534,1.534,0,0,0-1.532,1.532V7.311a1.534,1.534,0,0,0,1.532,1.532h5.778a1.534,1.534,0,0,0,1.532-1.532V1.532A1.534,1.534,0,0,0,173.817,0Z" transform="translate(-155.223)" fill="#b6b7b7"/>
        <path id="Path_4301" data-name="Path 4301" d="M7.312,166.507H1.533A1.534,1.534,0,0,0,0,168.039v5.778a1.534,1.534,0,0,0,1.532,1.532H7.312a1.534,1.534,0,0,0,1.532-1.532v-5.778A1.534,1.534,0,0,0,7.312,166.507Z" transform="translate(-0.001 -155.224)" fill="#b6b7b7"/>
        <path id="Path_4302" data-name="Path 4302" d="M173.817,166.507h-5.778a1.534,1.534,0,0,0-1.532,1.532v5.778a1.534,1.534,0,0,0,1.532,1.532h5.778a1.534,1.534,0,0,0,1.532-1.532v-5.778A1.534,1.534,0,0,0,173.817,166.507Z" transform="translate(-155.223 -155.224)" fill="#b6b7b7"/>
      </g>
    </g>
  </g>
</svg>
