<svg xmlns="http://www.w3.org/2000/svg" width="27.005" height="31" viewBox="0 0 27.005 31">
  <g id="ic_notifications" transform="translate(-9095.655 -4969.81)">
    <path id="Union_17" data-name="Union 17" d="M2545.824,9053.249a42.146,42.146,0,0,0,10.667,0,5.533,5.533,0,0,1-10.667,0Zm1.532-1.7c-9.051-.659-9.145-4.523-9.2-5.585a4.265,4.265,0,0,1,2.1-3.385c1.289-.741,1.527-2.751,1.58-3.715s.068-2.941.148-3.546a9.254,9.254,0,0,1,18.342,0c.079.6.091,2.578.145,3.546s.291,2.974,1.582,3.715a4.256,4.256,0,0,1,2.1,3.385c-.052,1.062-.146,4.926-9.195,5.585-1.437.147-3.8.158-3.8.158S2548.793,9051.7,2547.356,9051.554Z" transform="translate(6558 -4057)" fill="#e4001c" stroke="rgba(0,0,0,0)" stroke-miterlimit="10" stroke-width="1"/>
  </g>
</svg>
