<svg xmlns="http://www.w3.org/2000/svg" xmlns:xlink="http://www.w3.org/1999/xlink" width="215.781" height="202.148" viewBox="0 0 215.781 202.148">
  <defs>
    <linearGradient id="linear-gradient" x1="0.5" y1="1" x2="0.5" gradientUnits="objectBoundingBox">
      <stop offset="0" stop-color="gray" stop-opacity="0.251"/>
      <stop offset="0.54" stop-color="gray" stop-opacity="0.122"/>
      <stop offset="1" stop-color="gray" stop-opacity="0.102"/>
    </linearGradient>
    <linearGradient id="linear-gradient-2" x1="0.5" y1="1" x2="0.5" y2="0" xlink:href="#linear-gradient"/>
    <linearGradient id="linear-gradient-3" x1="1.241" y1="1.124" x2="1.241" y2="0.124" xlink:href="#linear-gradient"/>
    <linearGradient id="linear-gradient-4" x1="0.5" y1="1" x2="0.5" y2="0" xlink:href="#linear-gradient"/>
    <linearGradient id="linear-gradient-5" x1="1.307" y1="2.047" x2="1.307" y2="1.047" xlink:href="#linear-gradient"/>
    <linearGradient id="linear-gradient-6" x1="0.5" y1="1" x2="0.5" y2="0" xlink:href="#linear-gradient"/>
    <linearGradient id="linear-gradient-7" x1="0.5" y1="1" x2="0.5" y2="0" xlink:href="#linear-gradient"/>
    <linearGradient id="linear-gradient-8" x1="0.5" y1="1" x2="0.5" y2="0" xlink:href="#linear-gradient"/>
    <linearGradient id="linear-gradient-9" x1="0.5" y1="1" x2="0.5" y2="0" xlink:href="#linear-gradient"/>
  </defs>
  <g id="Group_539" data-name="Group 539" transform="translate(-104 -213.241)">
    <g id="Group_47" data-name="Group 47" transform="translate(154.104 213.241)">
      <path id="Path_359" data-name="Path 359" d="M527.2,522.961c0-11.215-7.524-20.583-17.368-21.63s-18.77,6.567-20.611,17.581L430.35,517.1,431,528.569s-8.4,21.963,35.728,27.815v22.2h51.009V541.675C523.595,537.783,527.2,530.662,527.2,522.961Z" transform="translate(-413.061 -386.309)" fill="url(#linear-gradient)"/>
      <path id="Path_360" data-name="Path 360" d="M439.627,575.154s-8.039,21.032,34.216,26.644v21.268h48.851V566.743L439,564.17Z" transform="translate(-419.67 -432.412)" fill="#ffbe9d"/>
      <path id="Path_361" data-name="Path 361" d="M406.522,180.689h0c-2.652,4.744-8.185,6.17-12.384,3.191l-26.229-19.6c-4.184-3.006-5.442-9.28-2.814-14.041h0c2.651-4.738,8.177-6.162,12.375-3.191l26.229,19.6C407.886,169.651,409.147,175.925,406.522,180.689Z" transform="translate(-362.15 -125.717)" fill="url(#linear-gradient-2)"/>
      <path id="Path_362" data-name="Path 362" d="M410.1,183.43h0c-2.465,4.41-7.608,5.735-11.511,2.966L374.2,168.167c-3.889-2.795-5.058-8.626-2.616-13.052h0c2.465-4.41,7.608-5.735,11.511-2.966l24.384,18.219C411.38,173.161,412.552,179,410.1,183.43Z" transform="translate(-367.186 -129.528)" fill="#ffbe9d"/>
      <ellipse id="Ellipse_105" data-name="Ellipse 105" cx="18.345" cy="20.8" rx="18.345" ry="20.8" transform="translate(75.406 116.569)" fill="#ffbe9d"/>
      <path id="Path_476" data-name="Path 476" d="M15.871.058H60.185C68.95.058,75.2-2.025,75.2,7.913l.441,137.366c0,9.938-6.693,10.426-15.458,10.426H15.871C7.106,155.7,0,147.648,0,137.71L.6,9.82C.6-.118,7.106.058,15.871.058Z" transform="translate(17.282 0.124)" fill="url(#linear-gradient-3)"/>
      <path id="Path_475" data-name="Path 475" d="M17.735.085H56.391c9.76,0,16.892-2.6,16.892,8.462L74.69,142.92c0,11.066-8.54,8.607-18.3,8.607H17.735c-9.76,0-17.95,2.458-17.95-8.607L.74,9.133C.74-1.933,7.975.085,17.735.085Z" transform="translate(18.245 2.201)" fill="#fff"/>
      <path id="Path_363" data-name="Path 363" d="M496.273,94.28c-.442,3.319-2.954,5.775-5.914,5.785H464.8c-2.959-.011-5.469-2.467-5.911-5.785h-13.54a3.015,3.015,0,0,0-2.812,3.185V234.936a3.016,3.016,0,0,0,2.809,3.188h64.667a3.015,3.015,0,0,0,2.812-3.185V97.468a3.016,3.016,0,0,0-2.81-3.188Z" transform="translate(-422.375 -88.196)" fill="#e4001c"/>
      <rect id="Rectangle_93" data-name="Rectangle 93" width="16.491" height="1.169" rx="0.584" transform="translate(47.167 7.895)" fill="#dbdbdb"/>
      <ellipse id="Ellipse_106" data-name="Ellipse 106" cx="0.618" cy="0.701" rx="0.618" ry="0.701" transform="translate(66.543 7.662)" fill="#dbdbdb"/>
      <path id="Path_364" data-name="Path 364" d="M731.249,396.537h0c-5.324,1.4-8.978-2.541-10.209-8.574l-12.233-51.5c-1.217-6.057,2.107-12.092,7.442-13.509h0c5.342-1.38,10.665,2.39,11.915,8.438l9.983,52.833C739.378,390.257,736.571,395.141,731.249,396.537Z" transform="translate(-625.64 -255.499)" fill="url(#linear-gradient-4)"/>
      <path id="Path_478" data-name="Path 478" d="M10.12,0c4.642-.135,8.3,3.967,8.16,9.164L16.813,65.482c-.135,5.2-4.008,9.518-8.65,9.654S-.132,71.169,0,65.972L1.47,9.657C1.605,4.461,5.478.139,10.12,0Z" transform="translate(81.277 72.334) rotate(-13.01)" fill="#ffbe9d"/>
      <rect id="Rectangle_95" data-name="Rectangle 95" width="69.824" height="18.454" transform="translate(42.195 183.694)" fill="url(#linear-gradient-5)"/>
      <rect id="Rectangle_96" data-name="Rectangle 96" width="66.049" height="14.442" transform="translate(44.082 185.834)" fill="#e4001c"/>
      <path id="Path_365" data-name="Path 365" d="M391.985,406.1h0c-2.619,4.688-8.086,6.1-12.236,3.153l-17.59-12.9c-4.135-2.97-5.377-9.168-2.781-13.873h0c2.619-4.688,8.086-6.1,12.236-3.153l17.59,12.9C393.339,395.194,394.581,401.392,391.985,406.1Z" transform="translate(-357.794 -295.874)" fill="url(#linear-gradient-6)"/>
      <path id="Path_366" data-name="Path 366" d="M394.468,518.518h0c-2.643,4.731-8.159,6.153-12.346,3.183l-10.9-9.008c-4.172-3-5.427-9.251-2.807-14h0c2.643-4.731,8.159-6.153,12.346-3.183l10.9,9.01C395.832,507.518,397.086,513.771,394.468,518.518Z" transform="translate(-364.693 -380.98)" fill="url(#linear-gradient-7)"/>
      <g id="Group_25" data-name="Group 25" transform="translate(34.092 53.953)" opacity="0.5">
        <ellipse id="Ellipse_107" data-name="Ellipse 107" cx="21.216" cy="24.055" rx="21.216" ry="24.055" fill="url(#linear-gradient-8)"/>
      </g>
      <path id="Path_368" data-name="Path 368" d="M396.738,520.588h0c-2.465,4.41-7.608,5.735-11.511,2.966l-10.162-8.387c-3.889-2.795-5.058-8.626-2.616-13.052h0c2.465-4.41,7.608-5.735,11.512-2.966l10.16,8.4C398,510.345,399.17,516.165,396.738,520.588Z" transform="translate(-367.843 -383.722)" fill="#ffbe9d"/>
      <path id="Path_369" data-name="Path 369" d="M394.4,408.033h0c-2.465,4.41-7.608,5.735-11.511,2.966l-16.55-12.142c-3.889-2.794-5.058-8.626-2.616-13.052h0c2.465-4.41,7.608-5.735,11.511-2.966l16.55,12.142C395.669,397.776,396.838,403.607,394.4,408.033Z" transform="translate(-361.172 -298.519)" fill="#ffbe9d"/>
      <path id="Path_370" data-name="Path 370" d="M395.8,294.524h0c-2.632,4.708-8.124,6.123-12.292,3.167l-22.292-16.456c-4.153-2.985-5.4-9.211-2.793-13.937h0c2.632-4.708,8.124-6.123,12.292-3.167L393,280.587C397.155,283.571,398.4,289.8,395.8,294.524Z" transform="translate(-357.057 -211.488)" fill="url(#linear-gradient-9)"/>
      <path id="Path_371" data-name="Path 371" d="M398.734,296.874h0c-2.465,4.41-7.608,5.735-11.511,2.966l-20.879-15.413c-3.889-2.794-5.058-8.626-2.616-13.052h0c2.465-4.41,7.608-5.735,11.511-2.966l20.876,15.413C400.006,286.616,401.176,292.447,398.734,296.874Z" transform="translate(-361.18 -214.694)" fill="#ffbe9d"/>
    </g>
    <g id="Group_207" data-name="Group 207" transform="translate(104 223.187)">
      <g id="phone-call-button" transform="translate(36.532 83.711)">
        <g id="call">
          <path id="Path_431" data-name="Path 431" d="M1.874,4.061A8.105,8.105,0,0,0,5.31,7.5L6.456,6.352a.415.415,0,0,1,.521-.1,5.446,5.446,0,0,0,1.874.312.492.492,0,0,1,.521.521v1.77a.492.492,0,0,1-.521.521A8.843,8.843,0,0,1,0,.521.492.492,0,0,1,.521,0H2.343a.492.492,0,0,1,.521.521,5.9,5.9,0,0,0,.312,1.874.641.641,0,0,1-.1.521Z" fill="#fff"/>
        </g>
      </g>
      <path id="Path_470" data-name="Path 470" d="M302.869,75.626c-13.834-.545-27.01-5.608-39.589-11.148s-25.044-11.679-38.547-14.6c-8.683-1.888-18.615-2.155-25.612,3.123-6.729,5.066-8.908,13.834-10.078,21.972-.882,6.122-1.4,12.565,1,18.295,1.675,3.975,4.648,7.326,6.7,11.136,7.152,13.26,2.1,29.613-5.655,42.563-3.636,6.074-7.854,11.866-10.661,18.334s-4.1,13.874-1.648,20.47c2.434,6.531,8.232,11.449,14.513,14.9,12.757,7.016,27.8,9.024,42.452,10.16,32.452,2.519,65.076,1.42,97.613.335,12.044-.4,24.137-.812,35.983-2.922,6.579-1.173,13.371-3.035,18.144-7.527A18.834,18.834,0,0,0,391,178.213c-6.814-11.994-25.655-14.972-30.418-27.844-2.62-7.084.073-14.975,3.882-21.546,8.172-14.1,21.871-26.464,22.594-42.575.5-11.074-6.091-22.148-16.278-27.384-10.674-5.486-25.474-4.8-33.348,4.288C329.333,72.509,315.083,76.106,302.869,75.626Z" transform="translate(-177.488 -48.644)" fill="#e4001c" opacity="0.1"/>
      <g id="_023-lock" data-name="023-lock" transform="translate(92.045 28.938)">
        <g id="Group_49" data-name="Group 49" transform="translate(0 0)">
          <g id="Group_48" data-name="Group 48">
            <path id="Path_473" data-name="Path 473" d="M99.949,6.162l-17.3-6.1a1.01,1.01,0,0,0-.676,0l-17.3,6.1a1.018,1.018,0,0,0-.68.96V19.33c0,15.8,2.343,21.573,17.854,29.394a1.018,1.018,0,0,0,.918,0c15.511-7.821,17.854-13.6,17.854-29.394V7.121A1.019,1.019,0,0,0,99.949,6.162ZM98.594,19.33c0,15.132-1.929,20.03-16.278,27.345C67.968,39.36,66.039,34.462,66.039,19.33V7.842L82.316,2.1,98.594,7.842V19.33Z" transform="translate(-64.004 0.001)" fill="#fff"/>
            <path id="Path_474" data-name="Path 474" d="M192,134.109a6.09,6.09,0,0,0,2.208,4.694l-1.18,8.389a1.018,1.018,0,0,0,1.007,1.159h8.139a1.018,1.018,0,0,0,1.007-1.159L202,138.8a6.1,6.1,0,1,0-10-4.694Zm10.174,0a4.067,4.067,0,0,1-1.826,3.392,1.02,1.02,0,0,0-.445.99l1.1,7.827h-5.8l1.1-7.827a1.02,1.02,0,0,0-.445-.99,4.068,4.068,0,1,1,6.313-3.392Z" transform="translate(-179.795 -115.796)" fill="#fff"/>
          </g>
        </g>
      </g>
      <path id="Path_472" data-name="Path 472" d="M540.011,419.51a9.9,9.9,0,1,1-9.9-9.9A9.9,9.9,0,0,1,540.011,419.51Zm-11.045,5.241,7.344-7.344a.638.638,0,0,0,0-.9l-.9-.9a.637.637,0,0,0-.9,0l-5.99,5.99-2.8-2.8a.641.641,0,0,0-.9,0l-.9.909a.641.641,0,0,0,0,.9l4.152,4.151a.638.638,0,0,0,.9,0Z" transform="translate(-407.064 -351.64)" fill="#3acc6c"/>
    </g>
  </g>
</svg>
