<svg xmlns="http://www.w3.org/2000/svg" width="36.25" height="48.333" viewBox="0 0 36.25 48.333"><g transform="translate(9.063)"><path d="M176.615,3.021h-3.281a4.532,4.532,0,0,0-8.546,0H161.51A1.511,1.511,0,0,0,160,4.531v6.042a1.511,1.511,0,0,0,1.51,1.51h15.1a1.511,1.511,0,0,0,1.51-1.51V4.531A1.511,1.511,0,0,0,176.615,3.021Z" transform="translate(-160)" fill="#fff"/></g><g transform="translate(0 6.042)"><path d="M97.229,64H94.208v4.531a4.537,4.537,0,0,1-4.531,4.531h-15.1a4.537,4.537,0,0,1-4.531-4.531V64H67.021A3.026,3.026,0,0,0,64,67.021v36.25a2.988,2.988,0,0,0,3.021,3.021H97.229a2.988,2.988,0,0,0,3.021-3.021V67.021A2.988,2.988,0,0,0,97.229,64ZM81.684,90.747l-6.042,6.042a1.517,1.517,0,0,1-2.139,0l-3.021-3.021a1.51,1.51,0,0,1,2.136-2.136l1.954,1.951,4.972-4.972a1.511,1.511,0,0,1,2.139,2.136Zm0-12.083L75.642,84.7a1.517,1.517,0,0,1-2.139,0l-3.021-3.021a1.51,1.51,0,0,1,2.136-2.136L74.573,81.5l4.972-4.972a1.511,1.511,0,0,1,2.139,2.136ZM92.7,94.208H86.656a1.51,1.51,0,0,1,0-3.021H92.7a1.51,1.51,0,0,1,0,3.021Zm0-12.083H86.656a1.51,1.51,0,0,1,0-3.021H92.7a1.51,1.51,0,0,1,0,3.021Z" transform="translate(-64 -64)" fill="#fff"/></g></svg>