<svg xmlns="http://www.w3.org/2000/svg" width="22.002" height="31.056" viewBox="0 0 22.002 31.056"><path d="M7.512,31.056a1.18,1.18,0,0,1-.82-.337l-2.58-2.479a.129.129,0,0,0-.181,0l-1.9,1.8a1.174,1.174,0,0,1-.812.332H1.213a1.174,1.174,0,0,1-.862-.391A1.356,1.356,0,0,1,0,29.053V2a1.366,1.366,0,0,1,.308-.881A1.218,1.218,0,0,1,.728.792,1.144,1.144,0,0,1,1.22.682a1.172,1.172,0,0,1,.81.331l1.9,1.8a.13.13,0,0,0,.182,0L6.691.337a1.166,1.166,0,0,1,1.64,0l2.578,2.477a.13.13,0,0,0,.182,0L13.67.337a1.166,1.166,0,0,1,1.64,0l2.58,2.479a.129.129,0,0,0,.181,0l1.9-1.8a1.163,1.163,0,0,1,.811-.334A1.132,1.132,0,0,1,21.284.8,1.307,1.307,0,0,1,22,2V29.053a1.367,1.367,0,0,1-.308.88,1.219,1.219,0,0,1-.421.329,1.145,1.145,0,0,1-.492.111,1.172,1.172,0,0,1-.81-.331l-1.9-1.8a.13.13,0,0,0-.182,0L15.31,30.719a1.167,1.167,0,0,1-1.64,0l-2.578-2.477a.13.13,0,0,0-.182,0L8.332,30.719A1.18,1.18,0,0,1,7.512,31.056ZM4.523,19.345a.589.589,0,0,0,0,1.175H17.478a.589.589,0,0,0,0-1.175Zm0-4.4a.589.589,0,0,0,0,1.175H17.478a.589.589,0,0,0,0-1.175ZM15.2,10.463h0l-.664.643.3.357a2.175,2.175,0,0,0,1.118.7v.567h.894v-.535a1.542,1.542,0,0,0,1.214-1.245A1.517,1.517,0,0,0,16.971,9.28c-.475-.189-.915-.395-1.039-.453a.333.333,0,0,1-.107-.3.433.433,0,0,1,.322-.355.887.887,0,0,1,.275-.043,1.358,1.358,0,0,1,.794.31l0,0,.577-.733a2.318,2.318,0,0,0-.949-.485V6.741h-.894v.493l-.012,0h0l-.047.014a1.379,1.379,0,0,0-.948,1.137,1.312,1.312,0,0,0,.525,1.259.44.44,0,0,0,.062.037c.005,0,.539.26,1.132.5.174.069.571.266.516.6a.553.553,0,0,1-.2.324.753.753,0,0,1-.439.166h-.123a1.347,1.347,0,0,1-.511-.132,1.245,1.245,0,0,1-.408-.315l-.3-.357Zm-10.672.074a.589.589,0,0,0,0,1.174h6.8a.589.589,0,0,0,0-1.174Z" transform="translate(0.001)" fill="#494949"/></svg>