<svg xmlns="http://www.w3.org/2000/svg" width="27.641" height="23.033" viewBox="0 0 27.641 23.033">
  <g id="trolley" transform="translate(0 -4)">
    <path id="Path_4292" data-name="Path 4292" d="M21.986,21.275H11.628a3.348,3.348,0,0,1-3.222-2.384L4.9,7.028A1.036,1.036,0,0,0,3.895,6.3H1.152a1.152,1.152,0,1,1,0-2.3H3.895A3.346,3.346,0,0,1,7.116,6.384l.655,2.223H25.386a2.271,2.271,0,0,1,1.823.916,2.176,2.176,0,0,1,.332,1.953l-2.376,7.541A3.342,3.342,0,0,1,21.986,21.275Zm3.4-10.365H25.4Z" transform="translate(0 0)" fill="#b6b7b7"/>
    <path id="Path_4293" data-name="Path 4293" d="M11.3,24.607a2.3,2.3,0,1,1,2.3-2.3A2.306,2.306,0,0,1,11.3,24.607Zm0-2.3h0Z" transform="translate(1.365 2.427)" fill="#b6b7b7"/>
    <path id="Path_4294" data-name="Path 4294" d="M18.3,24.607a2.3,2.3,0,1,1,2.3-2.3A2.306,2.306,0,0,1,18.3,24.607Zm0-2.3h0Z" transform="translate(2.427 2.427)" fill="#b6b7b7"/>
  </g>
</svg>
