<svg xmlns="http://www.w3.org/2000/svg" width="22.861" height="21.945" viewBox="0 0 22.861 21.945">
  <g id="wallet" transform="translate(0 -17.84)">
    <g id="Group_6857" data-name="Group 6857" transform="translate(0 17.84)">
      <path id="Path_4295" data-name="Path 4295" d="M160.748,22.018l9.114-2.488-.483-.976a1.284,1.284,0,0,0-1.72-.58L159.5,22.018Z" transform="translate(-155.405 -17.84)" fill="#b6b7b7"/>
      <path id="Path_4296" data-name="Path 4296" d="M331.019,86.46a1.283,1.283,0,0,0-.339.046l-2.141.585L322,88.876h10.657l-.4-1.468A1.281,1.281,0,0,0,331.019,86.46Z" transform="translate(-313.733 -84.698)" fill="#b6b7b7"/>
      <path id="Path_4297" data-name="Path 4297" d="M20.261,215.56H1.286a1.285,1.285,0,0,0-1.24.947,1.329,1.329,0,0,0-.046.336v14.3a1.284,1.284,0,0,0,1.284,1.284H20.258a1.284,1.284,0,0,0,1.284-1.284v-3.581H13.925a2.184,2.184,0,0,1-2.182-2.182v-2.855a2.179,2.179,0,0,1,2.18-2.18h7.62v-3.5A1.28,1.28,0,0,0,20.261,215.56Z" transform="translate(0 -210.484)" fill="#b6b7b7"/>
      <path id="Path_4298" data-name="Path 4298" d="M502.2,437.1a1.281,1.281,0,0,0-.449-.267,1.309,1.309,0,0,0-.416-.069h-7.653a1.284,1.284,0,0,0-1.284,1.284V440.9a1.284,1.284,0,0,0,1.284,1.284h7.653a1.308,1.308,0,0,0,.416-.069,1.244,1.244,0,0,0,.449-.267,1.279,1.279,0,0,0,.419-.947v-2.857A1.279,1.279,0,0,0,502.2,437.1Zm-5.838,2.631a.642.642,0,0,1-.642.642H495.3a.642.642,0,0,1-.642-.642V439.3a.629.629,0,0,1,.246-.5.649.649,0,0,1,.4-.139h.426a.642.642,0,0,1,.642.642v.426Z" transform="translate(-479.759 -426.006)" fill="#b6b7b7"/>
    </g>
  </g>
</svg>
