<svg xmlns="http://www.w3.org/2000/svg" width="52" height="52" viewBox="0 0 52 52">
  <g id="Group_12324" data-name="Group 12324" transform="translate(-36 -417)">
    <g id="Group_12323" data-name="Group 12323">
      <rect id="Rectangle_9" data-name="Rectangle 9" width="52" height="52" rx="26" transform="translate(36 417)" fill="#e4001c"/>
    </g>
    <g id="Group_12061" data-name="Group 12061" transform="translate(49 434)">
      <g id="Group_12060" data-name="Group 12060" transform="translate(0 0)">
        <path id="Path_4354" data-name="Path 4354" d="M23.817,80H1.588A1.59,1.59,0,0,0,0,81.588v14.29a1.589,1.589,0,0,0,1.588,1.588H23.817A1.588,1.588,0,0,0,25.4,95.878V81.588A1.589,1.589,0,0,0,23.817,80ZM5.557,92.7H3.97a.794.794,0,0,1-.794-.794V86.351a.794.794,0,1,1,0-1.588H3.97a.794.794,0,0,1,.794.794v5.557h.243l2.188-5.837a.794.794,0,1,1,1.486.559L6.3,92.188A.79.79,0,0,1,5.557,92.7Zm3.176,0a.819.819,0,0,1-.194-.024.794.794,0,0,1-.578-.962l1.588-6.351a.794.794,0,0,1,1.542.384L9.5,92.1A.793.793,0,0,1,8.733,92.7Zm5.794-.349a3.082,3.082,0,0,1-1.47.345,5.35,5.35,0,0,1-1.723-.316.795.795,0,0,1,.511-1.505,2.541,2.541,0,0,0,1.936.075A1.061,1.061,0,0,0,14.3,90.3c.048-.175-.233-.56-.965-1a3.341,3.341,0,0,1-1.7-1.845,2.024,2.024,0,0,1,.294-1.575c.989-1.6,3.395-1.042,3.665-.972a.794.794,0,0,1-.391,1.539c-.475-.121-1.626-.216-1.924.267-.135.221-.11.327-.1.364.083.333.727.716.969.861,1.739,1.037,1.877,2.083,1.686,2.779A2.658,2.658,0,0,1,14.527,92.353Zm7.7-.445a.794.794,0,0,1-1.588,0V90.321H18.353l-.972,1.943a.795.795,0,0,1-1.421-.711L19.136,85.2a.8.8,0,0,1,.711-.438h1.588a.794.794,0,0,1,.794.794Z" transform="translate(0 -80)" fill="#fff"/>
      </g>
    </g>
  </g>
</svg>
