<svg xmlns="http://www.w3.org/2000/svg" width="52" height="52" viewBox="0 0 52 52">
  <g id="Group_12322" data-name="Group 12322" transform="translate(-36 -327)">
    <g id="Group_12321" data-name="Group 12321">
      <rect id="Rectangle_9" data-name="Rectangle 9" width="52" height="52" rx="26" transform="translate(36 327)" fill="#e4001c"/>
    </g>
    <path id="fast-delivery" d="M19.814.164c2.41.559,3.332,1.968,4.487,3.908H19.814ZM5.731,4.234a.715.715,0,0,1,.814.76.814.814,0,0,1-.812.814H.814a.814.814,0,0,0,0,1.629H8.143a.814.814,0,1,1,0,1.629H.814a.814.814,0,0,0,0,1.629H2.605v2.443a.814.814,0,0,0,.814.814H5.056a3.122,3.122,0,0,0,6.118,0h8.268a3.122,3.122,0,0,0,6.118,0h1.42a.814.814,0,0,0,.814-.814V8.252c0-2.389-2.52-2.548-2.522-2.552H19a.814.814,0,0,1-.814-.814V0H3.42a.814.814,0,0,0-.814.814V2.606H1.628a.814.814,0,1,0,0,1.629Zm17.826,8.038a1.493,1.493,0,1,1-2.549,1.056A1.493,1.493,0,0,1,23.557,12.272Zm-14.386,0a1.493,1.493,0,1,1-2.549,1.056A1.493,1.493,0,0,1,9.171,12.272Zm0,0" transform="translate(48 345)" fill="#fffefe" fill-rule="evenodd"/>
  </g>
</svg>
