<svg xmlns="http://www.w3.org/2000/svg" width="52" height="52" viewBox="0 0 52 52">
  <g id="Group_12316" data-name="Group 12316" transform="translate(-36 -145)">
    <rect id="Rectangle_9" data-name="Rectangle 9" width="52" height="52" rx="26" transform="translate(36 145)" fill="#e4001c"/>
    <g id="Group_1074" data-name="Group 1074" transform="translate(-9265.648 -4714.417)">
      <path id="Path_940" data-name="Path 940" d="M9336.352,4879.63l-2.049,2.872a7.071,7.071,0,0,0-13.519.373l2.122.091-2.484,3.238-1.427,1.86-1.662-2.7h0l-1.685-2.741,1.991.116a10.442,10.442,0,0,1,9.971-8.318A10.144,10.144,0,0,1,9336.352,4879.63Z" fill="#fff"/>
      <path id="Path_941" data-name="Path 941" d="M9339.648,4888.226l-2.068-.129a10.442,10.442,0,0,1-9.97,8.32,10.14,10.14,0,0,1-8.737-5.206l2.029-2.918a7.073,7.073,0,0,0,13.549-.386l-2.059-.1,2.407-3.148,1.466-1.917,1.622,2.628Z" fill="#fff"/>
    </g>
  </g>
</svg>
