<svg id="trolley" xmlns="http://www.w3.org/2000/svg" width="36.476" height="30.395" viewBox="0 0 36.476 30.395">
  <path id="Path_4292" data-name="Path 4292" d="M29.014,26.8H15.345a4.418,4.418,0,0,1-4.252-3.146L6.473,8A1.368,1.368,0,0,0,5.14,7.04H1.52A1.52,1.52,0,1,1,1.52,4H5.14A4.416,4.416,0,0,1,9.391,7.146l.865,2.933H33.5a3,3,0,0,1,2.406,1.208,2.871,2.871,0,0,1,.438,2.578l-3.135,9.951A4.411,4.411,0,0,1,29.014,26.8ZM33.5,13.119h.015Z" transform="translate(0 -4)" fill="#fff"/>
  <path id="Path_4293" data-name="Path 4293" d="M12.04,26.079a3.04,3.04,0,1,1,3.04-3.04A3.043,3.043,0,0,1,12.04,26.079Zm0-3.041v0Z" transform="translate(4.678 4.316)" fill="#fff"/>
  <path id="Path_4294" data-name="Path 4294" d="M19.04,26.079a3.04,3.04,0,1,1,3.04-3.04A3.043,3.043,0,0,1,19.04,26.079Zm0-3.041v0Z" transform="translate(8.316 4.316)" fill="#fff"/>
</svg>
