<svg xmlns="http://www.w3.org/2000/svg" class="Icon" width="19.808" height="23.769" viewBox="0 0 19.808 23.769">
  <g id="bell" transform="translate(0 0)">
    <path id="Path_4290" data-name="Path 4290" d="M19.193,16.751a6.634,6.634,0,0,1-2.356-5.076V8.914A6.938,6.938,0,0,0,10.894,2.06V.991a.99.99,0,0,0-1.981,0V2.06A6.937,6.937,0,0,0,2.971,8.914v2.761A6.641,6.641,0,0,1,.606,16.759a1.733,1.733,0,0,0,1.127,3.05H18.075a1.733,1.733,0,0,0,1.118-3.057Zm0,0" transform="translate(0 0)" fill="#e4001c"/>
    <path id="Path_4291" data-name="Path 4291" d="M138.592,450.971A3.72,3.72,0,0,0,142.23,448h-7.277A3.72,3.72,0,0,0,138.592,450.971Zm0,0" transform="translate(-128.688 -427.201)" fill="#e4001c"/>
  </g>
</svg>
