<svg xmlns="http://www.w3.org/2000/svg" width="20.025" height="22.126" viewBox="0 0 20.025 22.126">
  <g id="Group_12220" data-name="Group 12220" transform="translate(-1064 -6178.007)">
    <path id="Path_4427" data-name="Path 4427" d="M135.814,5.588a.693.693,0,0,1-.693-.693V.693a.693.693,0,1,1,1.386,0V4.9A.693.693,0,0,1,135.814,5.588Z" transform="translate(933.679 6178.007)" fill="#e4001c"/>
    <path id="Path_4428" data-name="Path 4428" d="M344.565,5.588a.693.693,0,0,1-.693-.693V.693a.693.693,0,1,1,1.386,0V4.9A.693.693,0,0,1,344.565,5.588Z" transform="translate(733.967 6178.007)" fill="#e4001c"/>
    <path id="Subtraction_4" data-name="Subtraction 4" d="M17.07,12.514H2.955A2.959,2.959,0,0,1,0,9.559V0H20.025V9.559A2.959,2.959,0,0,1,17.07,12.514Zm.6-4.417a.866.866,0,1,0,.866.866A.867.867,0,0,0,17.666,8.1ZM13.9,8.1a.866.866,0,1,0,.866.866A.867.867,0,0,0,13.9,8.1Zm-3.767,0A.866.866,0,1,0,11,8.964.867.867,0,0,0,10.132,8.1Zm-3.767,0a.866.866,0,1,0,.866.866A.867.867,0,0,0,6.365,8.1ZM2.6,8.1a.866.866,0,1,0,.866.866A.867.867,0,0,0,2.6,8.1ZM17.666,5.067a.866.866,0,1,0,.866.866A.867.867,0,0,0,17.666,5.067Zm-3.767,0a.866.866,0,1,0,.866.866A.867.867,0,0,0,13.9,5.067Zm-3.767,0A.866.866,0,1,0,11,5.933.867.867,0,0,0,10.132,5.067Zm-3.767,0a.866.866,0,1,0,.866.866A.867.867,0,0,0,6.365,5.067Zm-3.767,0a.866.866,0,1,0,.866.866A.867.867,0,0,0,2.6,5.067ZM17.666,2.036a.866.866,0,1,0,.866.866A.867.867,0,0,0,17.666,2.036Zm-3.767,0a.866.866,0,1,0,.866.866A.867.867,0,0,0,13.9,2.036Zm-3.767,0A.866.866,0,1,0,11,2.9.867.867,0,0,0,10.132,2.036Zm-3.767,0a.866.866,0,1,0,.866.866A.867.867,0,0,0,6.365,2.036Zm-3.767,0a.866.866,0,1,0,.866.866A.867.867,0,0,0,2.6,2.036Z" transform="translate(1064 6187.619)" fill="#e4001c"/>
    <path id="Path_4430" data-name="Path 4430" d="M44.288,54.65V51.48a2.959,2.959,0,0,0-2.955-2.955h-.459v2.794a2.078,2.078,0,0,1-4.157,0V48.525H31.834v2.794a2.078,2.078,0,1,1-4.157,0V48.525h-.459a2.959,2.959,0,0,0-2.955,2.955V54.65H44.288Z" transform="translate(1039.737 6131.583)" fill="#e4001c"/>
  </g>
</svg>
