<svg xmlns="http://www.w3.org/2000/svg" width="60.784" height="78.538" viewBox="0 0 60.784 78.538">
  <g id="Group_12350" data-name="Group 12350" transform="translate(-2839.61 -8591.123)">
    <g id="Path_4454" data-name="Path 4454" transform="translate(1269.084 7501.308)" fill="#ea4335">
      <path d="M 1601.886840820312 1167.353515625 L 1601.491943359375 1167.353515625 L 1600.472900390625 1167.353515625 L 1600.10107421875 1167.353515625 L 1599.819580078125 1167.110595703125 C 1599.647094726562 1166.961669921875 1599.457641601562 1166.816284179688 1599.257080078125 1166.662231445312 C 1598.789428710938 1166.30322265625 1598.259521484375 1165.896362304688 1597.854370117188 1165.354125976562 C 1594.147827148438 1160.39208984375 1590.394409179688 1155.336669921875 1586.7646484375 1150.44775390625 C 1583.785400390625 1146.435302734375 1580.704956054688 1142.286254882812 1577.667358398438 1138.211791992188 C 1576.165649414062 1136.197509765625 1574.92626953125 1134.092651367188 1573.9833984375 1131.95556640625 C 1572.995971679688 1129.71728515625 1572.30029296875 1127.368408203125 1571.916015625 1124.974243164062 C 1570.972534179688 1119.097534179688 1571.743896484375 1113.388427734375 1574.208862304688 1108.005493164062 C 1576.896118164062 1102.137451171875 1581.110717773438 1097.591552734375 1586.735473632812 1094.494018554688 C 1591.167724609375 1092.053100585938 1595.877075195312 1090.8154296875 1600.732666015625 1090.8154296875 C 1602.248046875 1090.8154296875 1603.802001953125 1090.936645507812 1605.351318359375 1091.17578125 C 1610.69921875 1092.000732421875 1615.490844726562 1094.148193359375 1619.593139648438 1097.558471679688 C 1624.586791992188 1101.709594726562 1627.874633789062 1106.906494140625 1629.365478515625 1113.005004882812 C 1631.557250976562 1121.9716796875 1629.920043945312 1130.276000976562 1624.499267578125 1137.687255859375 C 1618.884887695312 1145.36328125 1613.102661132812 1153.110717773438 1607.5107421875 1160.602905273438 C 1606.32177734375 1162.195922851562 1605.1328125 1163.788940429688 1603.944580078125 1165.38232421875 C 1603.571533203125 1165.882568359375 1603.121826171875 1166.26513671875 1602.686767578125 1166.635009765625 C 1602.50537109375 1166.789428710938 1602.333984375 1166.935180664062 1602.175170898438 1167.083740234375 L 1601.886840820312 1167.353515625 Z" stroke="none"/>
      <path d="M 1601.491943359375 1166.353515625 C 1602.046997070312 1165.834106445312 1602.695678710938 1165.384399414062 1603.142944335938 1164.784545898438 C 1610.013549804688 1155.570922851562 1616.907104492188 1146.37353515625 1623.692138671875 1137.096923828125 C 1628.94921875 1129.909545898438 1630.51123046875 1121.903686523438 1628.39404296875 1113.242431640625 C 1626.92431640625 1107.22998046875 1623.6943359375 1102.26806640625 1618.953857421875 1098.327514648438 C 1614.957885742188 1095.005615234375 1610.354125976562 1092.959350585938 1605.198852539062 1092.1640625 C 1598.833251953125 1091.181518554688 1592.823608398438 1092.28271484375 1587.217895507812 1095.369995117188 C 1581.76904296875 1098.37060546875 1577.716552734375 1102.747680664062 1575.118041992188 1108.421875 C 1572.720581054688 1113.657470703125 1571.990966796875 1119.132690429688 1572.9033203125 1124.815673828125 C 1573.663818359375 1129.552856445312 1575.607543945312 1133.775756835938 1578.469116210938 1137.614135742188 C 1585.208129882812 1146.653686523438 1591.907958984375 1155.722412109375 1598.655517578125 1164.755615234375 C 1599.1279296875 1165.387939453125 1599.860961914062 1165.825439453125 1600.472900390625 1166.353515625 L 1601.491943359375 1166.353515625 M 1602.28173828125 1168.353515625 L 1599.729248046875 1168.353515625 L 1599.166259765625 1167.86767578125 C 1599.015380859375 1167.737426757812 1598.8369140625 1167.600463867188 1598.648071289062 1167.455444335938 C 1598.129150390625 1167.057006835938 1597.541015625 1166.60546875 1597.053344726562 1165.95263671875 C 1593.345825195312 1160.989379882812 1589.591918945312 1155.933471679688 1585.961669921875 1151.0439453125 C 1582.98291015625 1147.031860351562 1579.902587890625 1142.883178710938 1576.86572265625 1138.8095703125 C 1575.319091796875 1136.735107421875 1574.041625976562 1134.564819335938 1573.068481445312 1132.359252929688 C 1572.046508789062 1130.042724609375 1571.326538085938 1127.611450195312 1570.928588867188 1125.132690429688 C 1569.953247070312 1119.057373046875 1570.7509765625 1113.154907226562 1573.299560546875 1107.589233398438 C 1576.078247070312 1101.521850585938 1580.436401367188 1096.8212890625 1586.253173828125 1093.618041992188 C 1590.834716796875 1091.094848632812 1595.706420898438 1089.8154296875 1600.732666015625 1089.8154296875 C 1602.298950195312 1089.8154296875 1603.904174804688 1089.940551757812 1605.50390625 1090.1875 C 1611.033325195312 1091.04052734375 1615.98876953125 1093.26171875 1620.232421875 1096.78955078125 C 1625.394409179688 1101.08056640625 1628.794067382812 1106.456298828125 1630.336791992188 1112.767578125 C 1632.60205078125 1122.034301757812 1630.909545898438 1130.6171875 1625.306396484375 1138.277709960938 C 1619.689208984375 1145.957641601562 1613.905395507812 1153.706909179688 1608.312133789062 1161.201049804688 C 1607.123291015625 1162.7939453125 1605.934448242188 1164.386840820312 1604.746215820312 1165.980102539062 C 1604.3056640625 1166.571044921875 1603.789794921875 1167.009765625 1603.334716796875 1167.396850585938 C 1603.162475585938 1167.543212890625 1602.999877929688 1167.681518554688 1602.858520507812 1167.813842773438 L 1602.28173828125 1168.353515625 Z" stroke="none" fill="#c6211d"/>
    </g>
    <path id="Path_4455" data-name="Path 4455" d="M1674.347,1189.544a8.142,8.142,0,0,1,8.112-8.028c4.321.038,7.554,3.2,8.033,8.029.536,0,1.089-.012,1.642,0a4.757,4.757,0,0,1,4.709,4.651q.078,5.763,0,11.527a4.719,4.719,0,0,1-4.69,4.665q-9.723.054-19.447,0a4.736,4.736,0,0,1-4.718-4.744q-.057-5.663,0-11.327a4.779,4.779,0,0,1,4.794-4.775C1673.281,1189.537,1673.777,1189.544,1674.347,1189.544Zm12.834,3.279h-9.523c-.178,2.454-.509,3.172-1.591,3.109-2.084-.12-1.571-1.828-1.708-3.177-.551,0-1.044-.022-1.535,0a1.561,1.561,0,0,0-1.625,1.662q-.034,5.563,0,11.126a1.535,1.535,0,0,0,1.648,1.637q9.572.027,19.144,0a1.511,1.511,0,0,0,1.639-1.538q.049-5.662,0-11.326a1.493,1.493,0,0,0-1.518-1.553c-.522-.045-1.051-.008-1.635-.008-.133,1.349.372,3.054-1.71,3.173C1687.689,1195.995,1687.363,1195.284,1687.182,1192.823Zm-.013-3.326a4.727,4.727,0,0,0-4.866-4.766c-3,.058-4.92,2.876-4.595,4.766Z" transform="translate(1187.407 7421.69)" fill="#fff"/>
  </g>
</svg>
