<svg xmlns="http://www.w3.org/2000/svg" width="15.359" height="19.661" viewBox="0 0 15.359 19.661"><g transform="translate(-82.024 -32)"><path d="M130.194,103.243a.351.351,0,0,1-.23.44l-.67.21,1.348,4.306v-5.832l-.657.206Z" transform="translate(-45.195 -67.279)" fill="#2e2e2e"/><path d="M182.153,50.959h-4.046a.351.351,0,0,1-.351-.351v-.7h-.7a.351.351,0,0,1-.351-.351V34.107a.351.351,0,0,1,.351-.351h.7v-.7a.351.351,0,0,1,.351-.351h4.213a.351.351,0,0,1,.351.351v.7h.7a.351.351,0,0,1,.351.351V45.8l.179.248h.523V32H176V51.662h6.912A3.893,3.893,0,0,1,182.153,50.959Z" transform="translate(-89.852)" fill="#2e2e2e"/><path d="M85.446,80.843V78.491l-2.123-6.782a.351.351,0,0,1,.23-.44l.67-.21-.21-.67a.351.351,0,0,1,.23-.44l1.2-.376v-.736l-3.422,1.071Z" transform="translate(0 -35.22)" fill="#2e2e2e"/><path d="M212.558,73.953l1.06,1.467V65.053h-.7a.351.351,0,0,1-.351-.351V64h-3.511v.7a.351.351,0,0,1-.351.351H208V79.8h.7a.351.351,0,0,1,.351.351v.7h3.232a3.835,3.835,0,0,1-.422-1.657l-2.212-3.273a1.761,1.761,0,0,1-.1-1.8,2.107,2.107,0,1,1,2.868-.339A1.772,1.772,0,0,1,212.558,73.953Z" transform="translate(-120.447 -30.596)" fill="#2e2e2e"/><path d="M260.452,200v7.022a.351.351,0,0,1-.351.351h-1.053a.351.351,0,0,1-.285-.145l-2.05-2.837-.006-.009a1.053,1.053,0,1,0-1.745,1.179l2.278,3.371a.351.351,0,0,1,.054.263,3.164,3.164,0,0,0,3.159,3.093h2.107v-8.075a1.058,1.058,0,0,0-.124-.5Z" transform="translate(-165.175 -160.627)" fill="#2e2e2e"/><path d="M240,225.391a1.4,1.4,0,0,0,.6,1.149c.039-.031.079-.062.121-.09a1.756,1.756,0,0,1,1.737-.13,1.4,1.4,0,1,0-2.457-.93Z" transform="translate(-151.043 -183.56)" fill="#2e2e2e"/></g></svg>