<svg xmlns="http://www.w3.org/2000/svg" width="62.146" height="51.801" viewBox="0 0 62.146 51.801">
  <g id="Group_12217" data-name="Group 12217" transform="translate(-276 -680.532)">
    <g id="Group_12216" data-name="Group 12216" transform="translate(276 680.532)">
      <path id="Path_4420" data-name="Path 4420" d="M9.894,59.14V90.866L.173,64.378a1.618,1.618,0,0,1,.97-2.08Z" transform="translate(-0.073 -52.758)" fill="#e4001c"/>
      <path id="Path_4421" data-name="Path 4421" d="M430.782,64.432l-9.705,26.443V59.2l8.735,3.152A1.619,1.619,0,0,1,430.782,64.432Z" transform="translate(-368.736 -52.811)" fill="#e4001c"/>
      <path id="Path_4422" data-name="Path 4422" d="M155.506,0H122.7a1.619,1.619,0,0,0-1.619,1.619V50.182A1.619,1.619,0,0,0,122.7,51.8h32.807a1.619,1.619,0,0,0,1.619-1.619V1.619A1.619,1.619,0,0,0,155.506,0ZM142.34,43.47h-9.713a1.619,1.619,0,0,1,0-3.238h9.713a1.619,1.619,0,0,1,0,3.238Zm3.238-6.475h-12.95a1.619,1.619,0,0,1,0-3.238h12.95a1.619,1.619,0,0,1,0,3.238Zm0-6.475h-9.713a1.619,1.619,0,0,1,0-3.238h9.713a1.619,1.619,0,0,1,0,3.238ZM147.2,19.188a1.619,1.619,0,0,1-1.619,1.619h-12.95a1.619,1.619,0,0,1-1.619-1.619V9.475a1.619,1.619,0,0,1,1.619-1.619h12.95A1.619,1.619,0,0,1,147.2,9.475Z" transform="translate(-107.915)" fill="#e4001c"/>
      <path id="Path_4423" data-name="Path 4423" d="M211.08,122h9.713v6.475H211.08Z" transform="translate(-184.792 -110.906)" fill="#e4001c"/>
    </g>
  </g>
</svg>
