<svg id="Component_16_1" data-name="Component 16 – 1" xmlns="http://www.w3.org/2000/svg" width="30" height="30" viewBox="0 0 30 30">
  <rect id="Rectangle_505" data-name="Rectangle 505" width="30" height="30" rx="6" fill="#e4001c"/>
  <g id="icon_delete" transform="translate(7 4)">
    <path id="Path_4339" data-name="Path 4339" d="M126.744,1.28h3.543v.6h1.28V1.2a1.2,1.2,0,0,0-1.2-1.2H126.66a1.2,1.2,0,0,0-1.2,1.2v.68h1.28Zm0,0" transform="translate(-120.269 0)" fill="#fff"/>
    <path id="Path_4340" data-name="Path 4340" d="M53.066,167.75H41.054a.564.564,0,0,0-.562.609l1,12.418A1.334,1.334,0,0,0,42.825,182h8.469a1.334,1.334,0,0,0,1.329-1.227l1-12.418a.563.563,0,0,0-.562-.609Zm-9.1,12.93h-.04a.64.64,0,0,1-.638-.6l-.629-10.194a.64.64,0,0,1,1.277-.079L44.562,180a.64.64,0,0,1-.6.678Zm3.744-.639a.64.64,0,0,1-1.28,0V169.846a.64.64,0,1,1,1.28,0Zm3.758-10.157-.6,10.194a.64.64,0,0,1-.638.6h-.038a.64.64,0,0,1-.6-.676l.6-10.195a.64.64,0,0,1,1.277.075Zm0,0" transform="translate(-38.814 -160.804)" fill="#fff"/>
    <path id="Path_4341" data-name="Path 4341" d="M16.465,78.027l-.42-1.26a.814.814,0,0,0-.772-.556H1.22a.813.813,0,0,0-.772.556l-.42,1.26a.529.529,0,0,0,.5.695H15.965a.521.521,0,0,0,.279-.081.527.527,0,0,0,.221-.614Zm0,0" transform="translate(0 -73.056)" fill="#fff"/>
  </g>
</svg>
