<svg xmlns="http://www.w3.org/2000/svg" width="146.007" height="137.971" viewBox="0 0 146.007 137.971">
  <g id="Group_12335" data-name="Group 12335" transform="translate(-8237.892 -3107.408)">
    <path id="Path_908" data-name="Path 908" d="M8310.151,3217.93h118.136l-9.693,59.09-8.25,3.111h-90.935Z" transform="translate(-48.126 -76.632)" fill="#d1d1d1"/>
    <path id="Path_909" data-name="Path 909" d="M8424.06,3216.472h13.927a1.224,1.224,0,0,1,1.205,1.422l-8.735,54.312a8.2,8.2,0,0,1-8.081,6.914H8333a8.207,8.207,0,0,0-8.187,8.227h0a8.207,8.207,0,0,0,8.187,8.226h93.729" transform="translate(-58.316 -75.62)" fill="none" stroke="#000" stroke-linecap="round" stroke-linejoin="round" stroke-width="6"/>
    <line id="Line_143" data-name="Line 143" x2="20.969" transform="translate(8261.462 3140.85)" fill="none" stroke="#000" stroke-linecap="round" stroke-linejoin="round" stroke-width="6"/>
    <path id="Path_910" data-name="Path 910" d="M8240.891,3149.058h9.782a7.946,7.946,0,0,1,7.813,6.574l13.672,77.146" transform="translate(0.001 -28.878)" fill="none" stroke="#000" stroke-linecap="round" stroke-miterlimit="10" stroke-width="6"/>
    <g id="Ellipse_113" data-name="Ellipse 113" transform="translate(8290.322 3107.408)" fill="#e4001c" stroke="#fff" stroke-linecap="round" stroke-linejoin="round" stroke-width="6">
      <ellipse cx="33.724" cy="33.89" rx="33.724" ry="33.89" stroke="none"/>
      <ellipse cx="33.724" cy="33.89" rx="30.724" ry="30.89" fill="none"/>
    </g>
    <line id="Line_144" data-name="Line 144" x2="21.359" y2="21.465" transform="translate(8313.572 3130.65)" fill="none" stroke="#fff" stroke-linecap="round" stroke-linejoin="round" stroke-width="6"/>
    <line id="Line_145" data-name="Line 145" y1="21.465" x2="21.359" transform="translate(8313.572 3130.65)" fill="none" stroke="#fff" stroke-linecap="round" stroke-linejoin="round" stroke-width="6"/>
    <g id="Group_1043" data-name="Group 1043" transform="translate(8282.429 3222.251)">
      <g id="Ellipse_114" data-name="Ellipse 114" fill="#d1d1d1" stroke="#000" stroke-linecap="round" stroke-linejoin="round" stroke-width="6">
        <circle cx="11.564" cy="11.564" r="11.564" stroke="none"/>
        <circle cx="11.564" cy="11.564" r="8.564" fill="none"/>
      </g>
      <g id="Ellipse_116" data-name="Ellipse 116" transform="translate(50.887)" fill="#d1d1d1" stroke="#000" stroke-linecap="round" stroke-linejoin="round" stroke-width="6">
        <circle cx="11.564" cy="11.564" r="11.564" stroke="none"/>
        <circle cx="11.564" cy="11.564" r="8.564" fill="none"/>
      </g>
    </g>
  </g>
</svg>
