<svg xmlns="http://www.w3.org/2000/svg" width="140.816" height="152" viewBox="0 0 140.816 152">
  <g id="Group_12356" data-name="Group 12356" transform="translate(-4558.134 -2485)">
    <g id="Group_12355" data-name="Group 12355" transform="translate(4558.134 2485)">
      <g id="Group_12335" data-name="Group 12335" transform="translate(0 0)">
        <path id="Path_4454" data-name="Path 4454" d="M1536.076,1244.117V1196.69a2.059,2.059,0,0,1,2.232-1.735,2.577,2.577,0,0,1,2.274,2.524,17.281,17.281,0,0,1,.042,1.928q0,20.949-.006,41.9a7.557,7.557,0,0,0,1.411,4.927,6.774,6.774,0,0,0,5.339,2.694,6.584,6.584,0,0,0,6.415-6.727c.051-5.6.014-11.2.014-16.8q0-26.505,0-53.01a9.118,9.118,0,0,1,2.4-6.816,8.762,8.762,0,0,1,6.649-2.413q27.915.026,55.83.009c2.789,0,2.79,0,3.314-2.675.239-1.219.542-2.422.9-3.61.238-.789-.049-1.125-.843-1.118-.412,0-.825-.006-1.238-.006q-13.614,0-27.228-.007c-2.336,0-4.589-.32-6.31-2.16a15.621,15.621,0,0,1-2.495-5.01c-.514-1.323-1.023-2.649-1.546-3.969-1.187-3-1.317-3.076-4.543-2.942-8.059.03-16.117.009-24.174.016-.458,0-.916-.007-1.373,0-1.962.051-2.549.613-2.6,2.55-.037,1.422,0,2.846-.013,4.269-.041,3.89-2.007,6.432-5.822,6.987-4,.583-4.1,1.884-4.086,4.994q.041,13.218,0,26.437c0,2.189-.395,2.741-2.259,3.406a2.121,2.121,0,0,1-2.282-1.643v-31.71c.95-3.956,3.1-5.82,7.142-6.2,1.759-.164,2.329-.763,2.362-2.546.028-1.47,0-2.941.01-4.411.044-4.385,2.689-7.072,7.049-7.082,9.716-.023,19.432-.007,29.148-.008q15.33,0,30.661,0c4.187,0,6,1.206,7.586,5.058,1.013,2.464,1.974,4.949,2.973,7.419.269.666.435,1.441,1.362,1.551a2.209,2.209,0,0,0,2.2-1.1,27.266,27.266,0,0,1,13.326-10.225,26.892,26.892,0,0,1,21.246.947,27.7,27.7,0,0,1,15.017,17.385,40.833,40.833,0,0,1,.737,5v6.342a25.355,25.355,0,0,1-5.283,13.5,4.4,4.4,0,0,0-.613,2.769q0,14.881,0,29.762c0,9.967-.184,19.938.069,29.9.153,6-4.364,8.931-9,8.92q-54.424-.127-108.849-.047c-1.924,0-3.848.025-5.772-.007a11.79,11.79,0,0,1-9.662-4.947A10.376,10.376,0,0,1,1536.076,1244.117Z" transform="translate(-1536.076 -1136.736)"/>
        <path id="Path_4455" data-name="Path 4455" d="M1696.466,1302.553c-.365.016-.731.045-1.1.045q-51.971,0-103.943,0h-1.375c2.766-3.256,2.534-7,2.53-10.715q-.031-33.151-.01-66.3c0-3.491,1.108-4.6,4.592-4.6q28.735,0,57.471-.028c1.2,0,1.6.293,1.722,1.534,1.115,11.487,11.034,21.819,22.509,23.589a27.656,27.656,0,0,0,18.061-3.071c.2-.108.414-.18.621-.269.557.49.479,1.166.479,1.794q.017,26.9-.016,53.809C1698.007,1299.885,1697.918,1301.5,1696.466,1302.553Z" transform="translate(-1570.251 -1189.98)" fill="#bebebe"/>
        <path id="Path_4456" data-name="Path 4456" d="M1541.37,1203.046q.006-2.593.011-5.185c1.842-.516,2.167-.946,2.167-2.924q0-13.845,0-27.69c0-2.911.991-4,3.839-4.234a6.16,6.16,0,0,0,6.054-6.49c.013-1.7-.013-3.4.007-5.1.019-1.553.734-2.342,2.235-2.342q13.326-.005,26.653.035c.642.263.744.9.963,1.441.9,2.212,1.806,4.424,2.648,6.659.722,1.917,1.872,3.242,4.03,3.43a1.5,1.5,0,0,1,.628.269,7.474,7.474,0,0,0,5.726,2.12c9.851-.046,19.7-.006,29.553-.039,1.1,0,1.477.14.979,1.324a17.257,17.257,0,0,0-1.346,5.733c-.063,1.153-.5,1.381-1.583,1.379-19.2-.036-38.4-.005-57.594-.051a9.269,9.269,0,0,0-6.568,2.224,4.134,4.134,0,0,1-1.275.49,5.073,5.073,0,0,0-4.045,4.908c-.037.642-.019,1.286-.019,1.929q0,34.172.013,68.344a10.929,10.929,0,0,1-1.893,6.494,2.933,2.933,0,0,1-1.837,1.338,6.965,6.965,0,0,1-7.161-7.225q-.024-22.053-.008-44.107C1543.547,1203.949,1543.074,1203.37,1541.37,1203.046Z" transform="translate(-1539.428 -1144.542)" fill="#dadada"/>
        <path id="Path_4457" data-name="Path 4457" d="M1799.587,1197.939a22.058,22.058,0,0,1-13.479-8.551,23.369,23.369,0,0,1,35.45-30.362,6.5,6.5,0,0,1,.409.535,23.847,23.847,0,0,1,1.83,22.043c-3.842,9.853-11.313,15.257-21.765,16.528A10.209,10.209,0,0,1,1799.587,1197.939Z" transform="translate(-1691.393 -1146.222)" fill="#e4001c"/>
        <path id="Path_4458" data-name="Path 4458" d="M1566.849,1299.264a8.9,8.9,0,0,0,3.28-7.1q.022-32.256.008-64.512,0-3.033,0-6.066c0-3.634,2.167-5.818,5.768-5.826a9.345,9.345,0,0,0-2.164,6.47q.051,34.715.017,69.43c0,4.075-2.237,6.9-5.958,7.568A6.463,6.463,0,0,1,1566.849,1299.264Z" transform="translate(-1555.56 -1186.698)" fill="#d1d1d1"/>
        <path id="Path_4459" data-name="Path 4459" d="M1678.993,1158.825a1.426,1.426,0,0,1-1.381-.955c-1.175-2.863-2.312-5.741-3.492-8.688h24.438a2.1,2.1,0,0,1,.71.823c1.084,2.58,2.131,5.175,3.1,7.8.242.656.226,1.13-.729,1.127-7.463-.029-14.925,0-22.388-.025A.787.787,0,0,1,1678.993,1158.825Z" transform="translate(-1623.479 -1144.604)" fill="#ff2641"/>
        <path id="Path_4460" data-name="Path 4460" d="M1880.127,1336.372a9.946,9.946,0,0,0,1.124-5.011q-.054-27.4-.043-54.806l3-2.108a2.379,2.379,0,0,1,.181,1.425q.012,28.166,0,56.332C1884.389,1335.264,1883.1,1336.509,1880.127,1336.372Z" transform="translate(-1753.912 -1223.798)" fill="#989898"/>
        <path id="Path_4461" data-name="Path 4461" d="M1831.2,1211.385a26.12,26.12,0,0,0,14.658-4.605,25.073,25.073,0,0,0,10.465-16.132,25.528,25.528,0,0,0-2.38-16.616,9.316,9.316,0,0,1-.364-1.025,21.939,21.939,0,0,1,5.9,17.947c-1.269,11.063-8.842,18.926-19.727,20.8A18.653,18.653,0,0,1,1831.2,1211.385Z" transform="translate(-1722.932 -1159.667)" fill="#b8051b"/>
        <path id="Path_4462" data-name="Path 4462" d="M1687.4,1158.711l21.713-.048h1.623l-3.77-9.594a1.144,1.144,0,0,1,.135-.021c3.676-.144,3.68-.145,5.008,3.216.838,2.12,1.663,4.246,2.477,6.329-.2.4-.513.261-.755.261q-12.686.02-25.371.017A1.6,1.6,0,0,1,1687.4,1158.711Z" transform="translate(-1631.889 -1144.491)" fill="#e4001c"/>
        <path id="Path_4463" data-name="Path 4463" d="M1661.316,1160.891c-2.592.04-3.843-.8-4.793-3.176-1.15-2.877-2.316-5.748-3.475-8.622,3.175-.165,3.217-.088,4.422,2.792C1658.729,1154.9,1659.614,1158.071,1661.316,1160.891Z" transform="translate(-1610.137 -1144.516)" fill="#d1d1d1"/>
        <path id="Path_4464" data-name="Path 4464" d="M1636.849,1401.308c-4.579,0-9.158-.006-13.737,0a2.126,2.126,0,0,1-2.322-1.53,1.954,1.954,0,0,1,.864-2.276,2.38,2.38,0,0,1,1.446-.326q13.806,0,27.611.006c1.481,0,2.421.82,2.424,2.04a2.137,2.137,0,0,1-2.413,2.074C1646.1,1401.319,1641.474,1401.308,1636.849,1401.308Z" transform="translate(-1589.654 -1301.392)" fill="#fff"/>
        <path id="Path_4465" data-name="Path 4465" d="M1631.775,1373.871c2.792,0,5.582-.009,8.374,0,1.555.007,2.424.712,2.475,1.957.052,1.279-.893,2.162-2.448,2.167q-8.511.028-17.022,0c-1.513-.006-2.39-.813-2.4-2.067s.864-2.046,2.373-2.055C1626.01,1373.859,1628.892,1373.872,1631.775,1373.871Z" transform="translate(-1589.69 -1286.653)" fill="#fff"/>
      </g>
      <path id="_211651_close_round_icon" data-name="211651_close_round_icon" d="M87.117,84.021l-8.108-8.134,8.108-8.134a2.238,2.238,0,0,0-3.16-3.17l-8.108,8.134-8.108-8.134a2.238,2.238,0,0,0-3.16,3.17l8.108,8.134-8.108,8.134a2.238,2.238,0,0,0,3.16,3.17l8.108-8.134,8.108,8.134a2.224,2.224,0,0,0,3.16,0A2.253,2.253,0,0,0,87.117,84.021Z" transform="translate(36.413 -47.187)" fill="#fff"/>
    </g>
    <g id="Group_12357" data-name="Group 12357">
      <text id="It_s_empty_here" data-name="It's empty here" transform="translate(4628 2631)" fill="#17222d" font-size="16" font-weight="500"><tspan x="-59.336" y="0">No Data Found</tspan></text>
    </g>
  </g>
</svg>
