<svg xmlns="http://www.w3.org/2000/svg" width="140" height="133" viewBox="0 0 140 133"><g transform="translate(591.996 -4.5)"><path d="M-498.615,33.578s-6.654-18.38-10.663-22.745-8.134-8.271-23.486-5.284-38.379,10.569-51.326,40.666c-7.562,18.59-7.9,37.909-7.9,42.389s-.23,11.373,7.045,16.312c7.046,4.825,13.806,11.488,17.815,15.164s22.913,16.542,40.671,17.232,37.153.919,59.419-26.077,15.048-44.206,8.4-50.592S-494.6,50.005-498.615,33.578Z" transform="translate(0)" fill="#eaf4fe"/><ellipse cx="6.077" cy="6.087" rx="6.077" ry="6.087" transform="translate(-584.151 6.102)" fill="none" stroke="#ffd49d" stroke-linecap="round" stroke-linejoin="round" stroke-width="2"/><ellipse cx="6.077" cy="6.087" rx="6.077" ry="6.087" transform="translate(-474.456 101.838)" fill="none" stroke="#ff9595" stroke-linecap="round" stroke-linejoin="round" stroke-width="2"/><g transform="translate(-579.196 9.743)"><g transform="translate(0 15.257)"><path d="M-576,38.1v93.243l5.992,6,12.167-12.186,11.894,12.186,12.711-13,12.348,13,12.167-12.822,11.258,12.822,5.993-7.547V48.637l-18.522-18.55H-568A8.006,8.006,0,0,0-576,38.1Z" transform="translate(575.996 -30.087)" fill="#b2e6fe" stroke="#232c89" stroke-linecap="round" stroke-linejoin="round" stroke-width="4"/><path d="M-475.954,48.65h-18.531V30.087Z" transform="translate(559.694 -30.087)" fill="#fff" stroke="#3c5991" stroke-linecap="round" stroke-linejoin="round" stroke-width="4"/></g><g transform="translate(18.4 54.877)"><g transform="translate(2.228)"><line x2="12.167" y2="12.185" fill="none" stroke="#232c89" stroke-linecap="round" stroke-linejoin="round" stroke-width="4"/><line y1="12.185" x2="12.167" fill="none" stroke="#232c89" stroke-linecap="round" stroke-linejoin="round" stroke-width="4"/></g><g transform="translate(32.852)"><line x2="12.167" y2="12.185" fill="none" stroke="#232c89" stroke-linecap="round" stroke-linejoin="round" stroke-width="4"/><line y1="12.185" x2="12.167" fill="none" stroke="#232c89" stroke-linecap="round" stroke-linejoin="round" stroke-width="4"/></g><path d="M-510.322,113.656v6.457a6.906,6.906,0,0,0,6.9,6.91h0a6.906,6.906,0,0,0,6.9-6.91v-6.457" transform="translate(544.462 -86.32)" fill="#a4e4ff" stroke="#232c89" stroke-linecap="round" stroke-linejoin="round" stroke-width="4"/><line x2="47.941" transform="translate(0 27.336)" fill="none" stroke="#232c89" stroke-linecap="round" stroke-linejoin="round" stroke-width="4"/></g><g transform="translate(34.4 0)"><path d="M10.611,40.06H8a8,8,0,0,1-8-8V8A8,8,0,0,1,8,0H80a8,8,0,0,1,8,8V32.061a8,8,0,0,1-8,8H18.94L10.611,48.4Z" fill="#ff525c" stroke="#232c89" stroke-width="4"/><g transform="translate(18.46 10.442)"><path d="M-506.979,32.245h4.038v2.678h-4.038v5.491h5.082v2.678h-8.023V24.344h8.023v2.678h-5.082Z" transform="translate(509.921 -24.13)" fill="#fff"/><path d="M-491.468,43.092a5.76,5.76,0,0,1-.268-2.3V37.843c0-1.74-.588-2.384-1.926-2.384h-1.016v7.633h-2.942V24.344h4.439c3.049,0,4.359,1.42,4.359,4.312V30.13c0,1.928-.615,3.187-1.926,3.8,1.471.615,1.952,2.035,1.952,3.991v2.892a5.524,5.524,0,0,0,.322,2.276Zm-3.21-16.07v5.758h1.15c1.1,0,1.766-.482,1.766-1.981V28.951c0-1.339-.454-1.929-1.5-1.929Z" transform="translate(507.461 -24.13)" fill="#fff"/><path d="M-478.03,43.092a5.782,5.782,0,0,1-.267-2.3V37.843c0-1.74-.589-2.384-1.926-2.384h-1.016v7.633h-2.942V24.344h4.439c3.049,0,4.359,1.42,4.359,4.312V30.13c0,1.928-.615,3.187-1.926,3.8,1.47.615,1.952,2.035,1.952,3.991v2.892a5.539,5.539,0,0,0,.321,2.276Zm-3.209-16.07v5.758h1.15c1.1,0,1.765-.482,1.765-1.981V28.951c0-1.339-.454-1.929-1.5-1.929Z" transform="translate(504.773 -24.13)" fill="#fff"/><path d="M-471.043,28.79c0-3,1.578-4.713,4.466-4.713s4.466,1.714,4.466,4.713V38.54c0,3-1.578,4.714-4.466,4.714s-4.466-1.715-4.466-4.714Zm2.942,9.937c0,1.34.589,1.848,1.525,1.848s1.524-.509,1.524-1.848V28.6c0-1.339-.588-1.848-1.524-1.848s-1.525.509-1.525,1.848Z" transform="translate(502.145 -24.077)" fill="#fff"/><path d="M-451.353,43.092a5.767,5.767,0,0,1-.267-2.3V37.843c0-1.74-.589-2.384-1.926-2.384h-1.017v7.633H-457.5V24.344h4.439c3.049,0,4.359,1.42,4.359,4.312V30.13c0,1.928-.615,3.187-1.926,3.8,1.471.615,1.953,2.035,1.953,3.991v2.892a5.524,5.524,0,0,0,.321,2.276Zm-3.21-16.07v5.758h1.15c1.1,0,1.765-.482,1.765-1.981V28.951c0-1.339-.454-1.929-1.5-1.929Z" transform="translate(499.438 -24.13)" fill="#fff"/></g></g></g><g transform="translate(-486.87 64.22)"><line x2="8" transform="translate(0 4.006)" fill="none" stroke="#c1c1c1" stroke-linecap="round" stroke-miterlimit="10" stroke-width="2"/><line y1="8.012" transform="translate(4)" fill="none" stroke="#c1c1c1" stroke-linecap="round" stroke-miterlimit="10" stroke-width="2"/></g></g></svg>