<svg xmlns="http://www.w3.org/2000/svg" width="140" height="139.909" viewBox="0 0 140 139.909"><g transform="translate(372.469 -0.046)"><path d="M-279.088,33.365s-6.654-18.245-10.663-22.578-8.134-8.21-23.486-5.245-38.38,10.491-51.326,40.367c-7.562,18.454-7.906,37.631-7.906,42.077s-.229,11.29,7.046,16.193c7.046,4.789,13.8,11.4,17.814,15.052s22.913,16.421,40.671,17.1,37.153.912,59.419-25.885,15.049-43.882,8.4-50.221S-275.069,49.671-279.088,33.365Z" transform="translate(0 -0.512)" fill="#eaf4fe"/><g transform="translate(-241.574 108.096)"><line x2="5.261" transform="translate(0 2.615)" fill="none" stroke="#c1c1c1" stroke-linecap="round" stroke-miterlimit="10" stroke-width="2"/><line y1="5.231" transform="translate(2.631)" fill="none" stroke="#c1c1c1" stroke-linecap="round" stroke-miterlimit="10" stroke-width="2"/></g><g transform="translate(-360.477 52.048)"><line x2="5.261" transform="translate(0 2.615)" fill="none" stroke="#ff9595" stroke-linecap="round" stroke-miterlimit="10" stroke-width="2"/><line y1="5.231" transform="translate(2.631)" fill="none" stroke="#ff9595" stroke-linecap="round" stroke-miterlimit="10" stroke-width="2"/></g><ellipse cx="6.077" cy="6.042" rx="6.077" ry="6.042" transform="translate(-363.924 7.573)" fill="none" stroke="#ffd49d" stroke-linecap="round" stroke-linejoin="round" stroke-width="2"/><ellipse cx="6.077" cy="6.042" rx="6.077" ry="6.042" transform="translate(-253.729 46.012)" fill="none" stroke="#ff9595" stroke-linecap="round" stroke-linejoin="round" stroke-width="2"/><g transform="translate(-359.141 2)"><line y1="18.138" x2="18.791" transform="translate(0 56.177)" fill="none" stroke="#232c89" stroke-linecap="round" stroke-linejoin="round" stroke-width="3.909"/><line x1="18.969" y1="17.131" transform="translate(90.501 56.177)" fill="none" stroke="#232c89" stroke-linecap="round" stroke-linejoin="round" stroke-width="3.909"/><path d="M-336.116,116.89V35.826a8.5,8.5,0,0,1,8.525-8.476h58.565a8.5,8.5,0,0,1,8.526,8.476V116.89" transform="translate(351.87 -7.189)" fill="#fff" stroke="#232c89" stroke-linecap="round" stroke-linejoin="round" stroke-width="3.909"/><line x2="42.045" transform="translate(32.66 30.2)" fill="none" stroke="#232c89" stroke-linecap="round" stroke-linejoin="round" stroke-width="3.909"/><line x2="42.045" transform="translate(32.66 36.948)" fill="none" stroke="#232c89" stroke-linecap="round" stroke-linejoin="round" stroke-width="3.909"/><path d="M-277.286,68.721a18.745,18.745,0,0,1,1.557,7.5,18.957,18.957,0,0,1-19.012,18.9,18.957,18.957,0,0,1-19.012-18.9,18.957,18.957,0,0,1,19.012-18.9,19,19,0,0,1,10.8,3.344" transform="translate(347.397 -13.323)" fill="none" stroke="#02bfa9" stroke-linecap="round" stroke-linejoin="round" stroke-width="3.909"/><path d="M-301.206,72.419l8.326,8.277,22.372-22.241" transform="translate(344.888 -13.555)" fill="none" stroke="#02bfa9" stroke-linecap="round" stroke-linejoin="round" stroke-width="3.909"/><path d="M-355.808,95.182l35.476,27.639,10.165-9.937a12.242,12.242,0,0,1,17-.092l10.485,10.029,36.345-28.647v57.2a5.509,5.509,0,0,1-5.526,5.493h-98.418a5.509,5.509,0,0,1-5.526-5.493Z" transform="translate(355.808 -20.866)" fill="#b2e6fe" stroke="#232c89" stroke-linecap="round" stroke-linejoin="round" stroke-width="3.909"/><line x1="33.37" y2="32.866" transform="translate(2.106 101.955)" fill="none" stroke="#232c89" stroke-linecap="round" stroke-linejoin="round" stroke-width="3.909"/><line x1="33.37" y1="32.866" transform="translate(73.126 101.955)" fill="none" stroke="#232c89" stroke-linecap="round" stroke-linejoin="round" stroke-width="3.909"/><line y2="11.614" transform="translate(75.896)" fill="none" stroke="#232c89" stroke-linecap="round" stroke-linejoin="round" stroke-width="3.909"/><line y1="11.023" x2="9.646" transform="translate(91.252 3.836)" fill="none" stroke="#232c89" stroke-linecap="round" stroke-linejoin="round" stroke-width="3.909"/><line x2="14.01" transform="translate(99.334 28.927)" fill="none" stroke="#232c89" stroke-linecap="round" stroke-linejoin="round" stroke-width="3.909"/></g></g></svg>