<svg xmlns="http://www.w3.org/2000/svg" width="159.868" height="158.438" viewBox="0 0 159.868 158.438">
  <g id="icon-bell" transform="translate(-3128.066 -3326.563)">
    <path id="Path_825" data-name="Path 825" d="M-485.363,37.7s-7.6-20.988-12.176-25.973-9.289-9.445-26.82-6.034-43.826,12.069-58.61,46.437C-591.6,73.363-592,95.423-592,100.539s-.262,12.987,8.045,18.627c8.046,5.51,15.765,13.118,20.344,17.315s26.165,18.89,46.443,19.677,42.425,1.049,67.852-29.777,17.184-50.48,9.6-57.772S-480.774,56.463-485.363,37.7Z" transform="translate(3720.062 3322.063)" fill="#eaf4fe"/>
    <ellipse id="Ellipse_92" data-name="Ellipse 92" cx="6.077" cy="6.087" rx="6.077" ry="6.087" transform="translate(3145.845 3337.602)" fill="none" stroke="#ffd49d" stroke-linecap="round" stroke-linejoin="round" stroke-width="2"/>
    <ellipse id="Ellipse_93" data-name="Ellipse 93" cx="6.077" cy="6.087" rx="6.077" ry="6.087" transform="translate(3255.541 3433.338)" fill="none" stroke="#ff9595" stroke-linecap="round" stroke-linejoin="round" stroke-width="2"/>
    <g id="Component_23_3" data-name="Component 23 – 3" transform="translate(3137 3338)">
      <path id="Path_933" data-name="Path 933" d="M15209.6-4085.355v-35.06l.956-15.937s2.55-8.287,2.868-8.924,10.837-13.068,10.837-13.068l7.809-4.94s11.156-4.144,11.953-4.622a50.9,50.9,0,0,1,8.128-1.913c1.434-.159,14.184,1.116,14.184,1.116l11.474,5.418s11.793,8.605,18.965,29.323c2.231,7.171,2.391,33.945,2.391,33.945v14.661Z" transform="translate(-15196 4180)" fill="#d1d1d1"/>
      <line id="Line_178" data-name="Line 178" y2="20.851" transform="translate(103.145 73.366)" fill="none" stroke="#17222d" stroke-linecap="round" stroke-linejoin="round" stroke-width="6"/>
      <path id="Path_917" data-name="Path 917" d="M10054.233,4418.689v.664a13.62,13.62,0,0,1-13.619,13.62h0a13.62,13.62,0,0,1-13.62-13.62v-.664" transform="translate(-9982.621 -4307.192)" fill="none" stroke="#17222d" stroke-linecap="round" stroke-linejoin="round" stroke-width="6"/>
      <path id="Path_918" data-name="Path 918" d="M10058.438,4094.552v-2.035a9.378,9.378,0,0,0-9.378-9.378h0a9.378,9.378,0,0,0-9.378,9.378v2.035" transform="translate(-9991.067 -4083.139)" fill="none" stroke="#17222d" stroke-linecap="round" stroke-linejoin="round" stroke-width="6"/>
      <path id="Path_916" data-name="Path 916" d="M9932.258,4198.58v-38.95a45.222,45.222,0,0,1,45.222-45.222h0a45.009,45.009,0,0,1,23.7,6.7" transform="translate(-9919.557 -4103.954)" fill="none" stroke="#17222d" stroke-linecap="round" stroke-linejoin="round" stroke-width="6"/>
      <g id="Rectangle_444" data-name="Rectangle 444" transform="translate(0 92.361)" fill="#ff2641" stroke="#17222d" stroke-linecap="round" stroke-linejoin="round" stroke-width="6">
        <path d="M18.024,0h79.8a18.024,18.024,0,0,1,18.024,18.024v0a2.7,2.7,0,0,1-2.7,2.7H2.7a2.7,2.7,0,0,1-2.7-2.7v0A18.024,18.024,0,0,1,18.024,0Z" stroke="none"/>
        <path d="M16.623,3h82.6a13.623,13.623,0,0,1,13.623,13.623v0a1.1,1.1,0,0,1-1.1,1.1H4.1a1.1,1.1,0,0,1-1.1-1.1v0A13.623,13.623,0,0,1,16.623,3Z" fill="none"/>
      </g>
      <path id="Path_919" data-name="Path 919" d="M9950.372,4446.5c-3.247,14.7,10.781,23.206,15.841,23.206" transform="translate(-9931.295 -4325.704)" fill="none" stroke="#17222d" stroke-linecap="round" stroke-linejoin="round" stroke-width="6"/>
      <path id="Path_920" data-name="Path 920" d="M10152.595,4446.5c3.248,14.7-10.78,23.206-15.84,23.206" transform="translate(-10055.688 -4325.704)" fill="none" stroke="#17222d" stroke-linecap="round" stroke-linejoin="round" stroke-width="6"/>
      <path id="Path_921" data-name="Path 921" d="M10135.035,4452.816c1.221,5.52-4.049,8.715-5.949,8.715" transform="translate(-10050.582 -4329.91)" fill="none" stroke="#17222d" stroke-linecap="round" stroke-linejoin="round" stroke-width="6"/>
      <path id="Path_922" data-name="Path 922" d="M9988.574,4452.816c-1.219,5.52,4.051,8.715,5.95,8.715" transform="translate(-9956.926 -4329.91)" fill="none" stroke="#17222d" stroke-linecap="round" stroke-linejoin="round" stroke-width="6"/>
      <g id="Group_1058" data-name="Group 1058" transform="translate(80 6.965)">
        <g id="Ellipse_118" data-name="Ellipse 118" fill="#e4001c" stroke="#fff" stroke-linecap="round" stroke-linejoin="round" stroke-width="6">
          <circle cx="31.5" cy="31.5" r="31.5" stroke="none"/>
          <circle cx="31.5" cy="31.5" r="28.5" fill="none"/>
        </g>
      </g>
      <g id="Group_12118" data-name="Group 12118" transform="translate(-3570 -3338)">
        <path id="Path_4375" data-name="Path 4375" d="M31.914,42.418a2.321,2.321,0,0,1-2.312-2.11L28.059,21.2a3.87,3.87,0,1,1,7.709,0L34.223,40.307a2.321,2.321,0,0,1-2.309,2.11Z" transform="translate(3649.957 3342.164)" fill="#fff"/>
        <ellipse id="Ellipse_126" data-name="Ellipse 126" cx="3.665" cy="3.665" rx="3.665" ry="3.665" transform="translate(3678 3387.449)" fill="#fff"/>
      </g>
    </g>
  </g>
</svg>
