<svg xmlns="http://www.w3.org/2000/svg" width="17.76" height="17.981" viewBox="0 0 17.76 17.981">
  <path id="Path_4332" data-name="Path 4332" d="M70.773,115.058l-1-12.6A1.575,1.575,0,0,0,68.209,101H66.233v2.928a.656.656,0,1,1-1.312,0V101H58.886v2.928a.656.656,0,1,1-1.312,0V101H55.6a1.575,1.575,0,0,0-1.563,1.446l-1,12.608a3.648,3.648,0,0,0,3.637,3.926H67.137a3.647,3.647,0,0,0,3.636-3.928Zm-5.914-6.419-3.393,3.393a.656.656,0,0,1-.928,0l-1.59-1.59a.656.656,0,0,1,.928-.928L61,110.64l2.929-2.929a.656.656,0,1,1,.928.928Z" transform="translate(-53.023 -101.005)" fill="#4a4a4a"/>
</svg>
