<svg id="Group_12240" data-name="Group 12240" xmlns="http://www.w3.org/2000/svg" width="51.632" height="50.894" viewBox="0 0 51.632 50.894">
  <path id="Path_4448" data-name="Path 4448" d="M265.628,260.842a12.64,12.64,0,0,0-21.4,6.779l-.778-.778a.979.979,0,0,0-1.384,1.384l2.252,2.252a.982.982,0,0,0,1.385,0l2.253-2.252a.979.979,0,1,0-1.384-1.384l-.222.222a10.685,10.685,0,1,1,2.772,10.285.979.979,0,0,0-1.384,1.384,12.652,12.652,0,0,0,17.892-17.892Z" transform="translate(-217.702 -231.546)" fill="#cc011a"/>
  <path id="Path_4449" data-name="Path 4449" d="M356.584,291.32a.978.978,0,0,0-.979.979v7.5a.993.993,0,0,0,.288.693l3.547,3.547a.979.979,0,0,0,1.384-1.384l-3.261-3.261V292.3A.978.978,0,0,0,356.584,291.32Z" transform="translate(-317.603 -261.552)" fill="#cc011a"/>
  <path id="Path_4450" data-name="Path 4450" d="M68.53,88.3a.978.978,0,0,0-.278-.563l-.981-.982a3.86,3.86,0,0,1-.684-4.577h-8.7a.979.979,0,1,1,0-1.957H69.04c.051-.013.1-.033.152-.045a.978.978,0,0,0,.675-.539,15.585,15.585,0,0,1,2.809-4.091H57.891a.979.979,0,0,1,0-1.957H74.916a15.538,15.538,0,0,1,9.049-2.936,15.727,15.727,0,0,1,2.973.284.968.968,0,0,0,.809-.205.979.979,0,0,0,.356-.755v-21A.978.978,0,0,0,87.125,48H51.108a.978.978,0,0,0-.979.979V85.494a16.48,16.48,0,0,1-4.858,11.729.979.979,0,0,0,.692,1.671h26.26a.979.979,0,0,0,.694-1.669A15.653,15.653,0,0,1,68.53,88.3ZM57.891,60.328H80.343a.979.979,0,1,1,0,1.957H57.891a.979.979,0,1,1,0-1.957Zm0,6.631H80.343a.979.979,0,0,1,0,1.957H57.891a.979.979,0,1,1,0-1.957Z" transform="translate(-44.985 -48)" fill="#cc011a"/>
</svg>
