<svg xmlns="http://www.w3.org/2000/svg" width="238" height="238" viewBox="0 0 238 238">
  <g id="Group_12235" data-name="Group 12235" transform="translate(-88 -244)">
    <g id="Group_12086" data-name="Group 12086" transform="translate(-2709.733 -4159.733)">
      <circle id="Ellipse_121" data-name="Ellipse 121" cx="119" cy="119" r="119" transform="translate(2797.733 4403.733)" fill="#e8f9f1" opacity="0.8"/>
      <circle id="Ellipse_123" data-name="Ellipse 123" cx="99" cy="99" r="99" transform="translate(2817.733 4423.733)" fill="#d3f4e5"/>
      <circle id="Ellipse_124" data-name="Ellipse 124" cx="75" cy="75" r="75" transform="translate(2841.733 4447.733)" fill="#c1efda"/>
      <circle id="Ellipse_125" data-name="Ellipse 125" cx="53" cy="53" r="53" transform="translate(2863.733 4469.733)" fill="#12a93e"/>
    </g>
    <g id="check" transform="translate(179.007 338.619)">
      <path id="Path_4359" data-name="Path 4359" d="M22.165,43.9a2.66,2.66,0,0,1-3.763,0L3.377,28.869a3.99,3.99,0,0,1,0-5.644l1.881-1.881a3.99,3.99,0,0,1,5.644,0l9.381,9.381L45.631,5.376a3.99,3.99,0,0,1,5.644,0l1.881,1.881a3.99,3.99,0,0,1,0,5.644Z" transform="translate(0)" fill="#fff"/>
    </g>
  </g>
</svg>
