<svg xmlns="http://www.w3.org/2000/svg" width="180" height="180" viewBox="0 0 180 180"><g transform="translate(-4711 -259)"><circle cx="90" cy="90" r="90" transform="translate(4711 259)" fill="#d3f4e5" opacity="0.62"/><circle cx="68" cy="68" r="68" transform="translate(4733 281)" fill="#c1efda" opacity="0.64"/><circle cx="48" cy="48" r="48" transform="translate(4753 301)" fill="#12a93e"/><g transform="translate(4777.667 330.744)"><path d="M20.267,40.122a2.407,2.407,0,0,1-3.4,0l-13.6-13.6a3.61,3.61,0,0,1,0-5.107l1.7-1.7a3.61,3.61,0,0,1,5.107,0L18.564,28.2,41.5,5.265a3.61,3.61,0,0,1,5.107,0l1.7,1.7a3.61,3.61,0,0,1,0,5.107Z" transform="translate(-2.208 -4.207)" fill="#fff"/></g></g></svg>