<svg xmlns="http://www.w3.org/2000/svg" width="36.25" height="48.333" viewBox="0 0 36.25 48.333">
  <g id="Group_12213" data-name="Group 12213" transform="translate(-88 -514)">
    <g id="shopping-list" transform="translate(88 514)">
      <g id="Group_6851" data-name="Group 6851" transform="translate(9.063)">
        <g id="Group_6850" data-name="Group 6850">
          <path id="Path_4280" data-name="Path 4280" d="M176.615,3.021h-3.281a4.532,4.532,0,0,0-8.546,0H161.51A1.511,1.511,0,0,0,160,4.531v6.042a1.511,1.511,0,0,0,1.51,1.51h15.1a1.511,1.511,0,0,0,1.51-1.51V4.531A1.511,1.511,0,0,0,176.615,3.021Z" transform="translate(-160)" fill="#e4001c"/>
        </g>
      </g>
      <g id="Group_6853" data-name="Group 6853" transform="translate(0 6.042)">
        <g id="Group_6852" data-name="Group 6852">
          <path id="Path_4281" data-name="Path 4281" d="M97.229,64H94.208v4.531a4.537,4.537,0,0,1-4.531,4.531h-15.1a4.537,4.537,0,0,1-4.531-4.531V64H67.021A3.026,3.026,0,0,0,64,67.021v36.25a2.988,2.988,0,0,0,3.021,3.021H97.229a2.988,2.988,0,0,0,3.021-3.021V67.021A2.988,2.988,0,0,0,97.229,64ZM81.684,90.747l-6.042,6.042a1.517,1.517,0,0,1-2.139,0l-3.021-3.021a1.51,1.51,0,0,1,2.136-2.136l1.954,1.951,4.972-4.972a1.511,1.511,0,0,1,2.139,2.136Zm0-12.083L75.642,84.7a1.517,1.517,0,0,1-2.139,0l-3.021-3.021a1.51,1.51,0,0,1,2.136-2.136L74.573,81.5l4.972-4.972a1.511,1.511,0,0,1,2.139,2.136ZM92.7,94.208H86.656a1.51,1.51,0,0,1,0-3.021H92.7a1.51,1.51,0,0,1,0,3.021Zm0-12.083H86.656a1.51,1.51,0,0,1,0-3.021H92.7a1.51,1.51,0,0,1,0,3.021Z" transform="translate(-64 -64)" fill="#e4001c"/>
        </g>
      </g>
    </g>
  </g>
</svg>
