<svg xmlns="http://www.w3.org/2000/svg" width="159.868" height="160.585" viewBox="0 0 159.868 160.585"><path d="M-485.363,37.7s-7.6-20.988-12.176-25.973-9.289-9.445-26.82-6.034-43.826,12.069-58.61,46.437C-591.6,73.363-592,95.423-592,100.539s-.262,12.987,8.045,18.627c8.046,5.51,15.765,13.118,20.344,17.315s26.165,18.89,46.443,19.677,42.425,1.049,67.852-29.777,17.184-50.48,9.6-57.772S-480.774,56.463-485.363,37.7Z" transform="translate(591.996 4.21)" fill="#eaf4fe"/><ellipse cx="6.077" cy="6.087" rx="6.077" ry="6.087" transform="translate(17.78 19.75)" fill="none" stroke="#ffd49d" stroke-linecap="round" stroke-linejoin="round" stroke-width="2"/><ellipse cx="6.077" cy="6.087" rx="6.077" ry="6.087" transform="translate(127.475 115.486)" fill="none" stroke="#ff9595" stroke-linecap="round" stroke-linejoin="round" stroke-width="2"/><g transform="translate(-6.343 -27.375)"><path d="M445.315,276.221a7.029,7.029,0,0,0-9.736-2.013l-.588.385,7.72,11.752.588-.385a7.026,7.026,0,0,0,2.016-9.739Z" transform="translate(-287.745 -177.178)" fill="#6addc7"/><path d="M119.6,58H44.32A8.238,8.238,0,0,0,36,66.26V166.913a8.417,8.417,0,0,0,8.32,8.468H119.6a8.494,8.494,0,0,0,8.409-8.468V66.26A8.317,8.317,0,0,0,119.6,58ZM54.984,74.391a4.631,4.631,0,1,1,4.631-4.631,4.631,4.631,0,0,1-4.631,4.631Zm17.432,0a4.631,4.631,0,1,1,4.631-4.631,4.631,4.631,0,0,1-4.631,4.631Zm17.434,0a4.628,4.628,0,1,1,3.276-1.356A4.631,4.631,0,0,1,89.85,74.391Zm17.432,0a4.631,4.631,0,1,1,4.631-4.631,4.631,4.631,0,0,1-4.631,4.631Z" transform="translate(0 -22.085)" fill="#d1d1d1"/><path d="M83.16,162.9a9.682,9.682,0,1,1-9.68,9.682,9.682,9.682,0,0,1,9.68-9.682Z" transform="translate(-27.03 -97.738)" fill="#e4001c"/><path d="M83.16,262.9a9.682,9.682,0,1,1-9.68,9.682,9.682,9.682,0,0,1,9.68-9.682Z" transform="translate(-27.03 -169.857)" fill="#e4001c"/><path d="M83.16,362.9a9.682,9.682,0,1,1-9.68,9.682,9.682,9.682,0,0,1,9.68-9.682Z" transform="translate(-27.03 -241.975)" fill="#e4001c"/><path d="M44.364,166.913V66.26A8.238,8.238,0,0,1,52.684,58H44.32A8.238,8.238,0,0,0,36,66.26V166.913a8.417,8.417,0,0,0,8.32,8.468h8.364A8.417,8.417,0,0,1,44.364,166.913Z" transform="translate(0 -22.085)" fill="#bbb"/><g transform="translate(53.312 27.375)"><path d="M99.763,44.677A1.673,1.673,0,0,1,98.09,43V29.048a1.673,1.673,0,1,1,3.346,0V43A1.673,1.673,0,0,1,99.763,44.677Z" transform="translate(-98.09 -27.375)" fill="#6d7486"/><path d="M99.763,44.677A1.673,1.673,0,0,1,98.09,43V29.048a1.673,1.673,0,1,1,3.346,0V43A1.673,1.673,0,0,1,99.763,44.677Z" transform="translate(-98.09 -27.375)" fill="#6d7486"/><path d="M162.286,44.677A1.673,1.673,0,0,1,160.613,43V29.048a1.673,1.673,0,0,1,3.346,0V43A1.673,1.673,0,0,1,162.286,44.677Z" transform="translate(-143.181 -27.375)" fill="#6d7486"/><path d="M224.811,44.677A1.673,1.673,0,0,1,223.138,43V29.048a1.673,1.673,0,1,1,3.346,0V43A1.673,1.673,0,0,1,224.811,44.677Z" transform="translate(-188.273 -27.375)" fill="#6d7486"/><path d="M287.334,44.677A1.673,1.673,0,0,1,285.661,43V29.048a1.673,1.673,0,1,1,3.346,0V43A1.673,1.673,0,0,1,287.334,44.677Z" transform="translate(-233.363 -27.375)" fill="#6d7486"/></g><path d="M215.7,182.971H173.873a1.673,1.673,0,1,1,0-3.346H215.7a1.673,1.673,0,0,1,0,3.346Z" transform="translate(-98.225 -109.8)" fill="#bbb"/><path d="M92.971,191.255a1.668,1.668,0,0,1-1.183-.49L89.124,188.1a1.673,1.673,0,1,1,2.366-2.366L93,187.243l3.717-3.554a1.673,1.673,0,1,1,2.312,2.418l-4.9,4.684A1.668,1.668,0,0,1,92.971,191.255Z" transform="translate(-37.959 -112.397)" fill="#fff"/><path d="M215.7,282.971H173.873a1.673,1.673,0,1,1,0-3.346H215.7a1.673,1.673,0,0,1,0,3.346Z" transform="translate(-98.225 -181.919)" fill="#bbb"/><path d="M92.971,291.255a1.668,1.668,0,0,1-1.183-.49L89.124,288.1a1.673,1.673,0,1,1,2.366-2.366L93,287.243l3.717-3.553a1.673,1.673,0,1,1,2.312,2.418l-4.9,4.684A1.668,1.668,0,0,1,92.971,291.255Z" transform="translate(-37.959 -184.515)" fill="#fff"/><path d="M200.388,382.971H173.873a1.673,1.673,0,1,1,0-3.346h26.515a1.673,1.673,0,1,1,0,3.346Z" transform="translate(-98.225 -254.037)" fill="#bbb"/><path d="M92.971,391.255a1.668,1.668,0,0,1-1.183-.49L89.124,388.1a1.673,1.673,0,1,1,2.366-2.366L93,387.243l3.717-3.553a1.673,1.673,0,1,1,2.312,2.418l-4.9,4.684A1.668,1.668,0,0,1,92.971,391.255Z" transform="translate(-37.959 -256.634)" fill="#fff"/><path d="M196.178,202.971H173.873a1.673,1.673,0,1,1,0-3.346h22.305a1.673,1.673,0,0,1,0,3.346Z" transform="translate(-98.225 -124.224)" fill="#bbb"/><path d="M196.178,302.971H173.873a1.673,1.673,0,1,1,0-3.346h22.305a1.673,1.673,0,0,1,0,3.346Z" transform="translate(-98.225 -196.342)" fill="#bbb"/><path d="M196.178,402.971H173.873a1.673,1.673,0,1,1,0-3.346h22.305a1.673,1.673,0,0,1,0,3.346Z" transform="translate(-98.225 -268.461)" fill="#bbb"/><path d="M54.973,99.194A1.673,1.673,0,0,1,53.3,97.521V95.765a1.673,1.673,0,0,1,3.346,0v1.757A1.673,1.673,0,0,1,54.973,99.194Z" transform="translate(-12.477 -48.115)" fill="#f4f8fc"/><path d="M54.973,138.909a1.673,1.673,0,0,1-1.673-1.673V121.065a1.673,1.673,0,1,1,3.346,0v16.171A1.673,1.673,0,0,1,54.973,138.909Z" transform="translate(-12.477 -66.361)" fill="#f4f8fc"/><path d="M332.592,299.66,287.65,329.173l3.862,5.875,44.94-29.513Z" transform="translate(-181.486 -196.368)" fill="#e75163"/><path d="M0,0H53.766V7.033H0Z" transform="matrix(0.836, -0.549, 0.549, 0.836, 102.32, 126.931)" fill="#fb6771"/><path d="M257.206,384.43l-.178.335-6.237,11.788,14.139-.371Z" transform="translate(-154.903 -257.502)" fill="#c79a83"/></g></svg>