<svg xmlns="http://www.w3.org/2000/svg" width="56.313" height="38.836" viewBox="0 0 56.313 38.836">
  <g id="Group_12342" data-name="Group 12342" transform="translate(0 -79.451)">
    <path id="Path_4366" data-name="Path 4366" d="M39.646,197.244,38.324,190.9a1.577,1.577,0,0,0-1.706-1.169H30.556l-.054.29C35.224,191.166,38.348,193.928,39.646,197.244Z" transform="translate(-27.147 -98.152)" fill="#f79f1a"/>
    <path id="Path_4367" data-name="Path 4367" d="M189.862,190.892h-3.917L183.5,205.248h3.91Z" transform="translate(-163.317 -99.184)" fill="#059bbf"/>
    <path id="Path_4368" data-name="Path 4368" d="M73.481,205.313l6.16-14.332H75.5l-3.832,9.792-.409-1.478a15.318,15.318,0,0,0-5.419-5.95l3.5,11.973Z" transform="translate(-58.595 -99.263)" fill="#059bbf"/>
    <path id="Path_4369" data-name="Path 4369" d="M252.528,198.568c.015-1.63-1.032-2.873-3.287-3.9-1.371-.663-2.206-1.105-2.2-1.778,0-.595.707-1.233,2.24-1.233a7.224,7.224,0,0,1,2.928.55l.354.162.531-3.11a10.145,10.145,0,0,0-3.508-.6c-3.867,0-6.589,1.946-6.613,4.736-.025,2.064,1.946,3.213,3.429,3.9,1.523.7,2.034,1.15,2.024,1.779-.01.962-1.214,1.4-2.339,1.4a8.21,8.21,0,0,1-3.686-.753l-.5-.23-.55,3.217a12.346,12.346,0,0,0,4.357.763C249.825,203.472,252.5,201.551,252.528,198.568Z" transform="translate(-214.81 -97.197)" fill="#059bbf"/>
    <path id="Path_4370" data-name="Path 4370" d="M345.318,203.217l5.012,0c.118.5.477,2.152.477,2.152h3.631l-3.169-14.346h-3.022a1.947,1.947,0,0,0-2.049,1.189l-5.812,13.158H344.5S345.165,203.6,345.318,203.217ZM348,196.264c-.019.039.324-.83.521-1.371l.265,1.238s.747,3.43.9,4.147h-3.248C346.767,199.453,348,196.264,348,196.264Z" transform="translate(-302.947 -99.304)" fill="#059bbf"/>
    <path id="Path_4371" data-name="Path 4371" d="M52.984,79.451H3.329A3.329,3.329,0,0,0,0,82.78v3.455H56.313V82.78A3.329,3.329,0,0,0,52.984,79.451Z" fill="#059bbf"/>
    <path id="Path_4372" data-name="Path 4372" d="M52.984,377.655H3.329A3.329,3.329,0,0,1,0,374.326v-3.455H56.313v3.455A3.329,3.329,0,0,1,52.984,377.655Z" transform="translate(0 -259.368)" fill="#f79f1a"/>
  </g>
</svg>
