<svg xmlns="http://www.w3.org/2000/svg" width="30" height="30" viewBox="0 0 30 30">
  <g id="Group_6866" data-name="Group 6866" transform="translate(-150.71)">
    <g id="Group_6865" data-name="Group 6865" transform="translate(150.71)">
      <path id="Path_4313" data-name="Path 4313" d="M165.71,0a15,15,0,1,0,15,15A15.017,15.017,0,0,0,165.71,0Zm-4.815,20.337a1.247,1.247,0,0,1-2.494,0V9.35a1.247,1.247,0,0,1,2.494,0Zm4.362,0a1.247,1.247,0,1,1-2.494,0V12.06a1.247,1.247,0,1,1,2.494,0Zm4.184-.075a1.247,1.247,0,1,1-2.494,0V9.276a1.247,1.247,0,1,1,2.494,0Zm4.126,0a1.247,1.247,0,0,1-2.494,0V14.844a1.247,1.247,0,0,1,2.494,0Z" transform="translate(-150.71)" fill="#e4001c"/>
    </g>
  </g>
</svg>
