<svg xmlns="http://www.w3.org/2000/svg" width="30" height="30" viewBox="0 0 30 30">
  <path id="ic_feedback" d="M160.07,0c-8.291,0-15,6.285-15,14.045s6.709,14.058,15,14.058a15.691,15.691,0,0,0,2.659-.217A8.545,8.545,0,0,0,167.311,30a6.34,6.34,0,0,1-.355-3.464,7.356,7.356,0,0,1,2.182-3.968,6.99,6.99,0,0,1,4.186-1.951,13.217,13.217,0,0,0,1.745-6.571C175.07,6.287,168.347,0,160.07,0Zm0,18.121h-8.182V15.6h8.182Zm8.182-5.549H151.888V9.847h16.364Z" transform="translate(-145.07 -0.002)" fill="#e4001c"/>
</svg>
