<svg xmlns="http://www.w3.org/2000/svg" width="30.498" height="29.998" viewBox="0 0 30.498 29.998">
  <g id="ic_logout" transform="translate(-208.968)">
    <g id="Group_440" data-name="Group 440" transform="translate(208.968)">
      <path id="Path_453" data-name="Path 453" d="M214.788,11.844a4.473,4.473,0,0,0-1.306,3.515,4.658,4.658,0,0,0,4.726,4.149h5.855v7.769A2.724,2.724,0,0,1,221.335,30H211.7a2.724,2.724,0,0,1-2.727-2.72V2.72A2.724,2.724,0,0,1,211.7,0h9.64a2.724,2.724,0,0,1,2.727,2.72v7.808H217.97A4.49,4.49,0,0,0,214.788,11.844Z" transform="translate(-208.968)" fill="#e4001c"/>
    </g>
    <path id="Union_4" data-name="Union 4" d="M10.884,20.572a1.358,1.358,0,0,1,0-1.923l6.82-6.8H1.365a1.36,1.36,0,1,1,0-2.72H17.706l-6.82-6.8A1.361,1.361,0,1,1,12.814.4l9.11,9.088a1.358,1.358,0,0,1,.305.415s0,0,0,0a.253.253,0,0,0,.011.025l0,.01.009.02.006.012c0,.006,0,.012.006.018a.074.074,0,0,1,.006.014.107.107,0,0,1,.007.017c0,.005,0,.01.006.015s0,.01.006.016,0,.011,0,.017a.075.075,0,0,1,0,.015c0,.006,0,.011.006.017s0,.01,0,.015,0,.012,0,.018l0,.014c0,.006,0,.012.006.018s0,.01,0,.015a.1.1,0,0,1,0,.018l0,.015,0,.017a.081.081,0,0,1,0,.016l0,.016c0,.006,0,.011,0,.017a.087.087,0,0,1,0,.017.082.082,0,0,1,0,.016c0,.006,0,.012,0,.018s0,.011,0,.016a.068.068,0,0,0,0,.015c0,.006,0,.013,0,.019a60.721,60.721,0,0,0,0,.034.135.135,0,0,0,0,.021.052.052,0,0,0,0,.013v.069c0,.008,0,.016,0,.024v.01a1.353,1.353,0,0,1-.451.945l-9.1,9.075a1.366,1.366,0,0,1-1.927,0Z" transform="translate(216.606 4.447)" fill="#e4001c" stroke="rgba(0,0,0,0)" stroke-miterlimit="10" stroke-width="1"/>
  </g>
</svg>
