<svg id="Icon_filter" xmlns="http://www.w3.org/2000/svg" width="22" height="15.613" viewBox="0 0 22 15.613">
  <path id="Path_209" data-name="Path 209" d="M7.118,0A3.678,3.678,0,0,0,3.539,2.843H.845a.845.845,0,1,0,0,1.69H3.539a3.678,3.678,0,0,0,7.158,0H21.155a.845.845,0,1,0,0-1.69H10.7A3.678,3.678,0,0,0,7.118,0Zm0,5.686A1.988,1.988,0,1,1,9.106,3.7,1.988,1.988,0,0,1,7.118,5.686Z" fill="#fff"/>
  <path id="Path_210" data-name="Path 210" d="M14.912,8.3a3.678,3.678,0,0,0-3.579,2.843H.845a.845.845,0,1,0,0,1.69H11.3a3.678,3.678,0,0,0,7.158,0h2.694a.845.845,0,0,0,0-1.69H18.461A3.678,3.678,0,0,0,14.912,8.3Zm0,5.667A1.988,1.988,0,1,1,16.9,11.978,1.988,1.988,0,0,1,14.912,13.967Z" transform="translate(0 -0.049)" fill="#fff"/>
</svg>
