<svg xmlns="http://www.w3.org/2000/svg" width="20.065" height="29.18" viewBox="0 0 20.065 29.18">
  <g id="pin" transform="translate(-79.968 0)">
    <path id="Path_4314" data-name="Path 4314" d="M98.639,5A9.9,9.9,0,0,0,90.225,0c-.149,0-.3,0-.449,0A9.9,9.9,0,0,0,81.361,5a10.159,10.159,0,0,0-.133,10.038l7.236,13.244.01.018a1.759,1.759,0,0,0,3.051,0l.01-.018,7.236-13.244A10.159,10.159,0,0,0,98.639,5ZM90,13.222a4.1,4.1,0,1,1,4.1-4.1A4.108,4.108,0,0,1,90,13.222Z" transform="translate(0 0)" fill="#e4001c"/>
  </g>
</svg>
