<svg xmlns="http://www.w3.org/2000/svg" width="36.665" height="26.551" viewBox="0 0 36.665 26.551">
  <g id="Tracking" transform="translate(-2 -11)">
    <rect id="Rectangle_17413" data-name="Rectangle 17413" width="3" height="1" transform="translate(2.333 31.275)" fill="#e4001c"/>
    <rect id="Rectangle_17414" data-name="Rectangle 17414" width="2" height="2" transform="translate(3.333 28.275)" fill="#e4001c"/>
    <rect id="Rectangle_17415" data-name="Rectangle 17415" width="1" height="1" transform="translate(4.333 26.275)" fill="#e4001c"/>
    <path id="Path_4431" data-name="Path 4431" d="M13.161,15A3.161,3.161,0,0,0,10,18.161c0,1.625,1.991,4.128,3.161,5.4,1.169-1.277,3.161-3.78,3.161-5.4A3.161,3.161,0,0,0,13.161,15Zm0,5.057a1.9,1.9,0,1,1,1.9-1.9,1.9,1.9,0,0,1-1.9,1.9Z" transform="translate(-2.943 -1.471)" fill="#e4001c"/>
    <ellipse id="Ellipse_151" data-name="Ellipse 151" cx="1" cy="0.5" rx="1" ry="0.5" transform="translate(9.333 16.275)" fill="#e4001c"/>
    <path id="Path_4432" data-name="Path 4432" d="M32.344,43a3.161,3.161,0,0,0-3.161,3.161,3.113,3.113,0,0,0,.651,1.9H17.153a3.113,3.113,0,0,0,.651-1.9,3.161,3.161,0,1,0-6.322,0,3.113,3.113,0,0,0,.651,1.9H2v1.264H32.344a3.161,3.161,0,0,0,0-6.322ZM15.275,46.793H14.011V45.529h1.264Zm17.7,0H31.712V45.529h1.264Z" transform="translate(0 -11.771)" fill="#e4001c"/>
    <path id="Path_4433" data-name="Path 4433" d="M49.163,27H45v5.689h9.482v-.37Z" transform="translate(-15.817 -5.885)" fill="#e4001c"/>
    <path id="Path_4434" data-name="Path 4434" d="M32.861,32.482A1.268,1.268,0,0,1,31.6,31.218V25.529a1.268,1.268,0,0,1,1.264-1.264h2.9l-1.081-1.081A.626.626,0,0,0,34.233,23H27.8v9.482H26.54V23h-4.45A8.229,8.229,0,0,1,13.9,30.586a8.114,8.114,0,0,1-1.9-.228V37.54a.632.632,0,0,0,.632.632h1.315a4.419,4.419,0,0,1,8.749,0h8.951a4.419,4.419,0,0,1,8.749,0h1.315a.632.632,0,0,0,.632-.632V32.482Zm-.632,2.529H29.7V33.747h2.529Z" transform="translate(-3.678 -4.414)" fill="#e4001c"/>
    <path id="Path_4435" data-name="Path 4435" d="M10.954,11a6.954,6.954,0,1,0,6.954,6.954A6.954,6.954,0,0,0,10.954,11ZM11.4,23.46a.641.641,0,0,1-.9,0c-.4-.411-3.976-4.058-3.976-6.77a4.425,4.425,0,1,1,8.85,0C15.379,19.4,11.807,23.049,11.4,23.46Z" transform="translate(-0.736)" fill="#e4001c"/>
  </g>
</svg>
